<svg width="26" height="28" viewBox="0 0 26 28" fill="none" xmlns="http://www.w3.org/2000/svg">
<path d="M17.0472 21.1991C19.7312 20.8807 22.3193 20.2497 24.7741 19.3435C22.7386 17.0841 21.4997 14.093 21.4997 10.8125V9.81968C21.4999 9.79648 21.5 9.77325 21.5 9.75C21.5 5.05558 17.6944 1.25 13 1.25C8.30558 1.25 4.5 5.05558 4.5 9.75L4.49972 10.8125C4.49972 14.093 3.2608 17.0841 1.22534 19.3435C3.68032 20.2498 6.26861 20.8808 8.95278 21.1992M17.0472 21.1991C15.72 21.3565 14.3693 21.4375 12.9997 21.4375C11.6303 21.4375 10.2798 21.3565 8.95278 21.1992M17.0472 21.1991C17.1789 21.6091 17.25 22.0462 17.25 22.5C17.25 24.8472 15.3472 26.75 13 26.75C10.6528 26.75 8.75 24.8472 8.75 22.5C8.75 22.0463 8.8211 21.6091 8.95278 21.1992" stroke="white" stroke-width="2" stroke-linecap="round" stroke-linejoin="round"/>
</svg>
