<svg width="37" height="27" viewBox="0 0 37 27" fill="none" xmlns="http://www.w3.org/2000/svg">
<g clip-path="url(#clip0_184_903)">
<g filter="url(#filter0_b_184_903)">
<mask id="path-1-inside-1_184_903" fill="white">
<path fill-rule="evenodd" clip-rule="evenodd" d="M17.3467 4.6882H19.7196C19.7196 4.31585 19.7223 3.95171 19.725 3.59254C19.7303 2.88871 19.7354 2.20396 19.7196 1.51397C19.6956 0.891101 19.1923 0.435928 18.5931 0.399994C17.9939 0.376037 17.3947 0.795275 17.3587 1.39419C17.3252 2.15571 17.3327 2.91723 17.3402 3.68692C17.3435 4.01894 17.3467 4.35248 17.3467 4.6882ZM1.22868 16.3833C0.856077 17.6245 0.484408 18.8627 0.533158 20.188C0.533158 20.2679 0.531827 20.3477 0.530495 20.4276C0.527832 20.5873 0.525169 20.747 0.533158 20.9067C0.796807 25.0751 4.76352 27.7702 8.73023 26.4526C10.4919 25.8657 11.7502 24.6799 12.4812 22.9789C13.1523 21.4338 14.2309 20.2958 15.8128 19.7328C17.4186 19.1579 19.0844 19.1699 20.7143 19.5652C22.4999 20.0083 23.6503 21.2181 24.3933 22.8831C25.6277 25.674 28.7196 27.2671 31.5598 26.6083C34.9752 25.8178 37.2282 22.2363 36.3294 18.8465C35.5505 15.8759 34.7116 12.9292 33.7768 10.0065C32.3148 5.43085 26.4306 3.59818 22.8474 6.88022C22.7036 7.01198 22.4519 7.09583 22.2602 7.09583C19.7435 7.1078 17.2269 7.1078 14.7103 7.09583C14.4945 7.09583 14.2309 7.01198 14.0751 6.86824C10.396 3.53829 4.38003 5.49074 3.01385 10.2461C2.88502 10.6863 2.75544 11.1265 2.62586 11.5667C2.23713 12.8873 1.8484 14.2079 1.4799 15.5285C1.39947 15.8143 1.31405 16.0989 1.22868 16.3833ZM25.433 14.2171C25.5667 14.0877 25.7129 13.9461 25.8794 13.7797C25.7517 13.6663 25.6297 13.5641 25.514 13.4672C25.3364 13.3184 25.1736 13.1821 25.0285 13.037C24.4173 12.4261 24.3814 11.7074 24.8967 11.1924C25.412 10.6773 26.131 10.7372 26.7422 11.3481C26.9414 11.5471 27.133 11.7537 27.3647 12.0034C27.4257 12.0692 27.4896 12.138 27.5571 12.2105C27.653 12.1041 27.7436 12.0007 27.8314 11.9006C28.0401 11.6627 28.2331 11.4426 28.4439 11.2403C28.9832 10.7252 29.6783 10.7132 30.1577 11.1804C30.661 11.6715 30.649 12.3902 30.1217 12.9412C29.9206 13.151 29.7003 13.3416 29.4375 13.569C29.3403 13.6532 29.2371 13.7425 29.127 13.8396C29.2771 13.9798 29.4193 14.1045 29.5545 14.223C29.754 14.3979 29.9383 14.5594 30.1097 14.7379C30.649 15.3009 30.649 16.0196 30.1577 16.4987C29.6543 16.9898 28.9593 16.9659 28.408 16.4149C28.2292 16.2284 28.0655 16.0268 27.8842 15.8035C27.7861 15.6826 27.6828 15.5553 27.5691 15.4207C27.4282 15.5704 27.305 15.7055 27.1914 15.8302C26.9958 16.0448 26.8283 16.2287 26.6463 16.4029C26.0711 16.9539 25.388 16.9898 24.8847 16.4987C24.3694 15.9956 24.3933 15.277 24.9566 14.69C25.1058 14.5341 25.2588 14.3859 25.433 14.2171ZM8.49709 12.6509C8.63645 12.6523 8.78092 12.6537 8.93396 12.6537C8.93396 12.5309 8.93313 12.4164 8.93234 12.3078C8.93014 12.0031 8.92827 11.7447 8.94594 11.4799C8.96991 10.7612 9.47324 10.2461 10.1443 10.2581C10.8035 10.2581 11.3068 10.7731 11.3308 11.5038C11.3386 11.7386 11.3362 11.9733 11.3336 12.2281C11.3322 12.3634 11.3308 12.5042 11.3308 12.6537C11.4694 12.6537 11.6038 12.6523 11.7355 12.651C11.9909 12.6483 12.2361 12.6458 12.4812 12.6537C13.2003 12.6777 13.7156 13.1808 13.7156 13.8396C13.7156 14.5103 13.2003 15.0134 12.4812 15.0374C12.2482 15.0452 12.0202 15.0428 11.7646 15.0403C11.6258 15.0389 11.479 15.0374 11.3188 15.0374C11.3188 15.1729 11.3202 15.3028 11.3216 15.429C11.3242 15.6708 11.3267 15.8991 11.3188 16.1274C11.3068 16.906 10.8394 17.4211 10.1443 17.433C9.43729 17.445 8.94594 16.918 8.93396 16.1034V15.0374C8.78041 15.0374 8.63548 15.0388 8.49618 15.0402C8.23325 15.0428 7.99039 15.0452 7.74754 15.0374C7.05247 15.0015 6.54914 14.5103 6.53715 13.8755C6.51319 13.2167 7.01651 12.6897 7.73556 12.6537C7.98669 12.6459 8.23268 12.6483 8.49709 12.6509Z"/>
</mask>
<path fill-rule="evenodd" clip-rule="evenodd" d="M17.3467 4.6882H19.7196C19.7196 4.31585 19.7223 3.95171 19.725 3.59254C19.7303 2.88871 19.7354 2.20396 19.7196 1.51397C19.6956 0.891101 19.1923 0.435928 18.5931 0.399994C17.9939 0.376037 17.3947 0.795275 17.3587 1.39419C17.3252 2.15571 17.3327 2.91723 17.3402 3.68692C17.3435 4.01894 17.3467 4.35248 17.3467 4.6882ZM1.22868 16.3833C0.856077 17.6245 0.484408 18.8627 0.533158 20.188C0.533158 20.2679 0.531827 20.3477 0.530495 20.4276C0.527832 20.5873 0.525169 20.747 0.533158 20.9067C0.796807 25.0751 4.76352 27.7702 8.73023 26.4526C10.4919 25.8657 11.7502 24.6799 12.4812 22.9789C13.1523 21.4338 14.2309 20.2958 15.8128 19.7328C17.4186 19.1579 19.0844 19.1699 20.7143 19.5652C22.4999 20.0083 23.6503 21.2181 24.3933 22.8831C25.6277 25.674 28.7196 27.2671 31.5598 26.6083C34.9752 25.8178 37.2282 22.2363 36.3294 18.8465C35.5505 15.8759 34.7116 12.9292 33.7768 10.0065C32.3148 5.43085 26.4306 3.59818 22.8474 6.88022C22.7036 7.01198 22.4519 7.09583 22.2602 7.09583C19.7435 7.1078 17.2269 7.1078 14.7103 7.09583C14.4945 7.09583 14.2309 7.01198 14.0751 6.86824C10.396 3.53829 4.38003 5.49074 3.01385 10.2461C2.88502 10.6863 2.75544 11.1265 2.62586 11.5667C2.23713 12.8873 1.8484 14.2079 1.4799 15.5285C1.39947 15.8143 1.31405 16.0989 1.22868 16.3833ZM25.433 14.2171C25.5667 14.0877 25.7129 13.9461 25.8794 13.7797C25.7517 13.6663 25.6297 13.5641 25.514 13.4672C25.3364 13.3184 25.1736 13.1821 25.0285 13.037C24.4173 12.4261 24.3814 11.7074 24.8967 11.1924C25.412 10.6773 26.131 10.7372 26.7422 11.3481C26.9414 11.5471 27.133 11.7537 27.3647 12.0034C27.4257 12.0692 27.4896 12.138 27.5571 12.2105C27.653 12.1041 27.7436 12.0007 27.8314 11.9006C28.0401 11.6627 28.2331 11.4426 28.4439 11.2403C28.9832 10.7252 29.6783 10.7132 30.1577 11.1804C30.661 11.6715 30.649 12.3902 30.1217 12.9412C29.9206 13.151 29.7003 13.3416 29.4375 13.569C29.3403 13.6532 29.2371 13.7425 29.127 13.8396C29.2771 13.9798 29.4193 14.1045 29.5545 14.223C29.754 14.3979 29.9383 14.5594 30.1097 14.7379C30.649 15.3009 30.649 16.0196 30.1577 16.4987C29.6543 16.9898 28.9593 16.9659 28.408 16.4149C28.2292 16.2284 28.0655 16.0268 27.8842 15.8035C27.7861 15.6826 27.6828 15.5553 27.5691 15.4207C27.4282 15.5704 27.305 15.7055 27.1914 15.8302C26.9958 16.0448 26.8283 16.2287 26.6463 16.4029C26.0711 16.9539 25.388 16.9898 24.8847 16.4987C24.3694 15.9956 24.3933 15.277 24.9566 14.69C25.1058 14.5341 25.2588 14.3859 25.433 14.2171ZM8.49709 12.6509C8.63645 12.6523 8.78092 12.6537 8.93396 12.6537C8.93396 12.5309 8.93313 12.4164 8.93234 12.3078C8.93014 12.0031 8.92827 11.7447 8.94594 11.4799C8.96991 10.7612 9.47324 10.2461 10.1443 10.2581C10.8035 10.2581 11.3068 10.7731 11.3308 11.5038C11.3386 11.7386 11.3362 11.9733 11.3336 12.2281C11.3322 12.3634 11.3308 12.5042 11.3308 12.6537C11.4694 12.6537 11.6038 12.6523 11.7355 12.651C11.9909 12.6483 12.2361 12.6458 12.4812 12.6537C13.2003 12.6777 13.7156 13.1808 13.7156 13.8396C13.7156 14.5103 13.2003 15.0134 12.4812 15.0374C12.2482 15.0452 12.0202 15.0428 11.7646 15.0403C11.6258 15.0389 11.479 15.0374 11.3188 15.0374C11.3188 15.1729 11.3202 15.3028 11.3216 15.429C11.3242 15.6708 11.3267 15.8991 11.3188 16.1274C11.3068 16.906 10.8394 17.4211 10.1443 17.433C9.43729 17.445 8.94594 16.918 8.93396 16.1034V15.0374C8.78041 15.0374 8.63548 15.0388 8.49618 15.0402C8.23325 15.0428 7.99039 15.0452 7.74754 15.0374C7.05247 15.0015 6.54914 14.5103 6.53715 13.8755C6.51319 13.2167 7.01651 12.6897 7.73556 12.6537C7.98669 12.6459 8.23268 12.6483 8.49709 12.6509Z" fill="#E60000"/>
<path d="M19.7196 4.6882V5.6882H20.7196V4.6882H19.7196ZM17.3467 4.6882H16.3467V5.6882H17.3467V4.6882ZM19.725 3.59254L18.725 3.58502V3.58502L19.725 3.59254ZM19.7196 1.51397L20.7193 1.49098L20.7191 1.48324L20.7188 1.47552L19.7196 1.51397ZM18.5931 0.399994L18.6529 -0.598213L18.643 -0.59881L18.633 -0.599208L18.5931 0.399994ZM17.3587 1.39419L16.3605 1.33427L16.36 1.34225L16.3597 1.35025L17.3587 1.39419ZM17.3402 3.68692L18.3402 3.67713V3.67713L17.3402 3.68692ZM0.533158 20.188H1.53316V20.1696L1.53248 20.1513L0.533158 20.188ZM1.22868 16.3833L2.18645 16.6708L1.22868 16.3833ZM0.530495 20.4276L-0.469366 20.4109L0.530495 20.4276ZM0.533158 20.9067L-0.46568 20.9567L-0.464848 20.9698L0.533158 20.9067ZM8.73023 26.4526L9.04546 27.4016L9.04632 27.4014L8.73023 26.4526ZM12.4812 22.9789L11.564 22.5806L11.5625 22.5841L12.4812 22.9789ZM15.8128 19.7328L16.1481 20.675L16.1499 20.6743L15.8128 19.7328ZM20.7143 19.5652L20.9551 18.5946L20.9499 18.5933L20.7143 19.5652ZM24.3933 22.8831L25.3079 22.4786L25.3065 22.4756L24.3933 22.8831ZM31.5598 26.6083L31.3343 25.6341L31.3338 25.6342L31.5598 26.6083ZM36.3294 18.8465L35.3621 19.1001L35.3628 19.1028L36.3294 18.8465ZM33.7768 10.0065L32.8243 10.3109L32.8244 10.3112L33.7768 10.0065ZM22.8474 6.88022L22.172 6.1428L22.1719 6.1429L22.8474 6.88022ZM22.2602 7.09583V6.09581L22.2554 6.09584L22.2602 7.09583ZM14.7103 7.09583L14.715 6.09583H14.7103V7.09583ZM14.0751 6.86824L14.7532 6.13324L14.7462 6.12683L14.0751 6.86824ZM3.01385 10.2461L3.97361 10.527L3.97497 10.5222L3.01385 10.2461ZM2.62586 11.5667L1.66656 11.2843L1.66656 11.2843L2.62586 11.5667ZM1.4799 15.5285L2.44252 15.7994L2.4431 15.7973L1.4799 15.5285ZM25.8794 13.7797L26.5863 14.487L27.3368 13.7368L26.5435 13.0321L25.8794 13.7797ZM25.433 14.2171L24.7373 13.4988L24.7373 13.4989L25.433 14.2171ZM25.514 13.4672L26.1561 12.7005L26.1561 12.7005L25.514 13.4672ZM25.0285 13.037L25.7354 12.3297L25.7354 12.3297L25.0285 13.037ZM24.8967 11.1924L24.1897 10.4851V10.4851L24.8967 11.1924ZM26.7422 11.3481L27.4492 10.6408L26.7422 11.3481ZM27.3647 12.0034L28.0977 11.3232L28.0977 11.3232L27.3647 12.0034ZM27.5571 12.2105L26.8254 12.8921L27.5696 13.6911L28.3003 12.8797L27.5571 12.2105ZM27.8314 11.9006L27.0796 11.2412L27.0796 11.2412L27.8314 11.9006ZM28.4439 11.2403L27.7533 10.5171L27.7516 10.5187L28.4439 11.2403ZM30.1577 11.1804L30.856 10.4647L30.8556 10.4642L30.1577 11.1804ZM30.1217 12.9412L30.8435 13.6333L30.8442 13.6326L30.1217 12.9412ZM29.4375 13.569L28.7831 12.8129L28.7831 12.8129L29.4375 13.569ZM29.127 13.8396L28.4656 13.0896L27.6397 13.8179L28.4441 14.57L29.127 13.8396ZM29.5545 14.223L30.2136 13.471V13.471L29.5545 14.223ZM30.1097 14.7379L30.8319 14.0462L30.8309 14.0452L30.1097 14.7379ZM30.1577 16.4987L29.4595 15.7828L29.4593 15.783L30.1577 16.4987ZM28.408 16.4149L27.6862 17.107L27.6935 17.1146L27.7011 17.1222L28.408 16.4149ZM27.8842 15.8035L27.1079 16.4338H27.1079L27.8842 15.8035ZM27.5691 15.4207L28.3333 14.7756L27.6099 13.9187L26.8411 14.7351L27.5691 15.4207ZM27.1914 15.8302L27.9305 16.5038L27.9305 16.5038L27.1914 15.8302ZM26.6463 16.4029L25.9546 15.6807H25.9546L26.6463 16.4029ZM24.8847 16.4987L24.1861 17.2143L24.1863 17.2145L24.8847 16.4987ZM24.9566 14.69L25.6781 15.3824L25.6791 15.3814L24.9566 14.69ZM8.93396 12.6537V13.6537H9.93396V12.6537H8.93396ZM8.49709 12.6509L8.48721 13.6509H8.48722L8.49709 12.6509ZM8.93234 12.3078L9.93232 12.3006V12.3006L8.93234 12.3078ZM8.94594 11.4799L9.94372 11.5464L9.94483 11.5298L9.94538 11.5132L8.94594 11.4799ZM10.1443 10.2581L10.1265 11.2579L10.1354 11.2581H10.1443V10.2581ZM11.3308 11.5038L10.3313 11.5366L10.3313 11.5371L11.3308 11.5038ZM11.3336 12.2281L12.3335 12.2384V12.2384L11.3336 12.2281ZM11.3308 12.6537H10.3308V13.6537H11.3308V12.6537ZM11.7355 12.651L11.7458 13.6509H11.7458L11.7355 12.651ZM12.4812 12.6537L12.5145 11.6543L12.5135 11.6542L12.4812 12.6537ZM12.4812 15.0374L12.4479 14.0379L12.4479 14.0379L12.4812 15.0374ZM11.7646 15.0403L11.7747 14.0403H11.7746L11.7646 15.0403ZM11.3188 15.0374V14.0374H10.3188V15.0374H11.3188ZM11.3216 15.429L12.3215 15.4181V15.4181L11.3216 15.429ZM11.3188 16.1274L10.3194 16.0929L10.319 16.1025L10.3189 16.112L11.3188 16.1274ZM10.1443 17.433L10.1613 18.4329L10.1616 18.4329L10.1443 17.433ZM8.93396 16.1034H7.93396V16.1108L7.93407 16.1182L8.93396 16.1034ZM8.93396 15.0374H9.93396V14.0374H8.93396V15.0374ZM8.49618 15.0402L8.5061 16.0402H8.5061L8.49618 15.0402ZM7.74754 15.0374L7.69591 16.0361L7.70561 16.0366L7.71532 16.0369L7.74754 15.0374ZM6.53715 13.8755L7.53697 13.8566L7.53681 13.8479L7.53649 13.8391L6.53715 13.8755ZM7.73556 12.6537L7.70434 11.6542L7.69498 11.6545L7.68564 11.655L7.73556 12.6537ZM19.7196 3.6882H17.3467V5.6882H19.7196V3.6882ZM18.725 3.58502C18.7223 3.94364 18.7196 4.31149 18.7196 4.6882H20.7196C20.7196 4.32021 20.7223 3.95978 20.725 3.60005L18.725 3.58502ZM18.7198 1.53696C18.7353 2.20916 18.7303 2.87863 18.725 3.58502L20.725 3.60005C20.7302 2.89878 20.7356 2.19877 20.7193 1.49098L18.7198 1.53696ZM18.5332 1.3982C18.5983 1.4021 18.6483 1.42828 18.6785 1.45727C18.7045 1.4823 18.7187 1.51077 18.7203 1.55242L20.7188 1.47552C20.6731 0.286283 19.7113 -0.534743 18.6529 -0.598213L18.5332 1.3982ZM18.3569 1.45411C18.3562 1.4667 18.3519 1.477 18.3501 1.48012C18.3494 1.48126 18.3552 1.47092 18.3752 1.45551C18.3953 1.44001 18.4238 1.42419 18.4583 1.41309C18.4926 1.40207 18.5255 1.39809 18.5531 1.3992L18.633 -0.599208C17.6424 -0.638815 16.4375 0.0511773 16.3605 1.33427L18.3569 1.45411ZM18.3402 3.67713C18.3326 2.9029 18.3256 2.1683 18.3577 1.43812L16.3597 1.35025C16.3248 2.14311 16.3328 2.93156 16.3403 3.69671L18.3402 3.67713ZM18.3467 4.6882C18.3467 4.34678 18.3434 4.00836 18.3402 3.67713L16.3403 3.69671C16.3435 4.02951 16.3467 4.35818 16.3467 4.6882H18.3467ZM1.53248 20.1513C1.4908 19.0182 1.8062 17.9375 2.18645 16.6708L0.270897 16.0958C-0.0940472 17.3115 -0.521988 18.7072 -0.466166 20.2248L1.53248 20.1513ZM1.53036 20.4443C1.53166 20.3658 1.53316 20.2776 1.53316 20.188H-0.466842C-0.466842 20.2581 -0.468011 20.3297 -0.469366 20.4109L1.53036 20.4443ZM1.53191 20.8568C1.52586 20.7359 1.5276 20.6095 1.53036 20.4443L-0.469366 20.4109C-0.471937 20.5651 -0.475525 20.7581 -0.465593 20.9567L1.53191 20.8568ZM8.415 25.5036C5.07476 26.6131 1.7537 24.3619 1.53116 20.8436L-0.464848 20.9698C-0.160082 25.7883 4.45227 28.9273 9.04546 27.4016L8.415 25.5036ZM11.5625 22.5841C10.9406 24.0309 9.89683 25.0099 8.41414 25.5039L9.04632 27.4014C11.0869 26.7215 12.5598 25.3288 13.4 23.3738L11.5625 22.5841ZM15.4775 18.7907C13.5938 19.4611 12.3269 20.8241 11.564 22.5806L13.3985 23.3773C13.9778 22.0434 14.8679 21.1305 16.1481 20.675L15.4775 18.7907ZM20.9499 18.5933C19.1718 18.1621 17.3019 18.1375 15.4757 18.7914L16.1499 20.6743C17.5354 20.1782 18.9971 20.1777 20.4786 20.537L20.9499 18.5933ZM25.3065 22.4756C24.4738 20.6096 23.1155 19.1308 20.9551 18.5946L20.4734 20.5357C21.8842 20.8859 22.8268 21.8267 23.4802 23.2906L25.3065 22.4756ZM31.3338 25.6342C28.9864 26.1787 26.3587 24.8546 25.3079 22.4786L23.4788 23.2876C24.8967 26.4935 28.4528 28.3556 31.7857 27.5825L31.3338 25.6342ZM35.3628 19.1028C36.1109 21.9242 34.2226 24.9656 31.3343 25.6341L31.7853 27.5826C35.7279 26.67 38.3456 22.5484 37.296 18.5902L35.3628 19.1028ZM32.8244 10.3112C33.7526 13.2136 34.5867 16.1428 35.3621 19.1001L37.2967 18.5928C36.5143 15.6089 35.6705 12.6448 34.7293 9.70191L32.8244 10.3112ZM23.5228 7.61764C26.5194 4.87292 31.564 6.36659 32.8243 10.3109L34.7294 9.70217C33.0656 4.49511 26.3418 2.32345 22.172 6.1428L23.5228 7.61764ZM22.2602 8.09583C22.6606 8.09583 23.1663 7.94432 23.523 7.61753L22.1719 6.1429C22.2022 6.11506 22.2245 6.10198 22.2309 6.09837C22.2383 6.09421 22.2398 6.09414 22.2356 6.09564C22.234 6.09622 22.2321 6.09679 22.2304 6.09726C22.2287 6.09773 22.2278 6.0979 22.228 6.09786C22.2282 6.09782 22.2305 6.09739 22.2351 6.09692C22.2396 6.09647 22.2481 6.09583 22.2602 6.09583V8.09583ZM14.7055 8.09581C17.2253 8.10781 19.7451 8.10781 22.2649 8.09581L22.2554 6.09584C19.742 6.1078 17.2285 6.1078 14.715 6.09584L14.7055 8.09581ZM13.397 7.60321C13.7765 7.95335 14.3019 8.09583 14.7103 8.09583V6.09583C14.7198 6.09583 14.721 6.09662 14.7151 6.09558C14.7096 6.09461 14.7031 6.09296 14.6976 6.09105C14.6919 6.08906 14.6925 6.08868 14.6994 6.0925C14.7055 6.09596 14.7257 6.10792 14.7532 6.13327L13.397 7.60321ZM3.97497 10.5222C5.15424 6.41745 10.3196 4.81796 13.4041 7.60965L14.7462 6.12683C10.4724 2.25863 3.60582 4.56404 2.05273 9.96997L3.97497 10.5222ZM3.58517 11.8491C3.71471 11.409 3.84451 10.9681 3.97359 10.527L2.05411 9.96522C1.92553 10.4045 1.79618 10.844 1.66656 11.2843L3.58517 11.8491ZM2.4431 15.7973C2.80938 14.4846 3.1961 13.1708 3.58517 11.8491L1.66656 11.2843C1.27817 12.6038 0.887421 13.9312 0.516694 15.2597L2.4431 15.7973ZM2.18645 16.6708C2.27141 16.3878 2.35935 16.0949 2.44251 15.7994L0.517279 15.2576C0.439593 15.5337 0.356687 15.81 0.270897 16.0958L2.18645 16.6708ZM25.1724 13.0724C25.0121 13.2326 24.8712 13.3692 24.7373 13.4988L26.1288 14.9354C26.2623 14.8061 26.4136 14.6596 26.5863 14.487L25.1724 13.0724ZM24.8719 14.2338C24.9887 14.3316 25.1 14.4249 25.2152 14.5272L26.5435 13.0321C26.4034 12.9076 26.2707 12.7965 26.1561 12.7005L24.8719 14.2338ZM24.3216 13.7443C24.5035 13.9261 24.7015 14.0911 24.8719 14.2338L26.1561 12.7005C25.9712 12.5457 25.8438 12.438 25.7354 12.3297L24.3216 13.7443ZM24.1897 10.4851C23.7487 10.9259 23.5007 11.5088 23.5423 12.1441C23.5827 12.762 23.888 13.3109 24.3216 13.7443L25.7354 12.3297C25.5578 12.1522 25.5395 12.0364 25.538 12.0135C25.5372 12.0012 25.5386 11.9928 25.5428 11.9823C25.5475 11.9706 25.5618 11.9415 25.6036 11.8997L24.1897 10.4851ZM27.4492 10.6408C27.0219 10.2138 26.4801 9.90304 25.8673 9.85152C25.2313 9.79805 24.6393 10.0357 24.1897 10.4851L25.6036 11.8997C25.6424 11.8609 25.6674 11.8499 25.6744 11.8473C25.6803 11.845 25.6864 11.8434 25.6997 11.8445C25.728 11.8469 25.8513 11.8715 26.0353 12.0554L27.4492 10.6408ZM28.0977 11.3232C27.8689 11.0765 27.6641 10.8556 27.4492 10.6408L26.0353 12.0554C26.2187 12.2387 26.3972 12.4309 26.6316 12.6835L28.0977 11.3232ZM28.2889 11.5289C28.2221 11.4573 28.1589 11.3891 28.0977 11.3232L26.6316 12.6835C26.6926 12.7493 26.7571 12.8188 26.8254 12.8921L28.2889 11.5289ZM27.0796 11.2412C26.9912 11.342 26.9048 11.4405 26.814 11.5414L28.3003 12.8797C28.4012 12.7676 28.496 12.6595 28.5833 12.5599L27.0796 11.2412ZM27.7516 10.5187C27.5043 10.756 27.2829 11.0094 27.0796 11.2412L28.5833 12.5599C28.7973 12.3159 28.9619 12.1292 29.1363 11.9618L27.7516 10.5187ZM30.8556 10.4642C30.4322 10.0516 29.8797 9.82497 29.2934 9.84246C28.7129 9.85978 28.1764 10.113 27.7533 10.5171L29.1346 11.9634C29.2507 11.8526 29.3314 11.8422 29.3531 11.8416C29.369 11.8411 29.4038 11.842 29.4597 11.8966L30.8556 10.4642ZM30.8442 13.6326C31.2561 13.2022 31.5145 12.6528 31.526 12.0577C31.5376 11.4553 31.2934 10.8914 30.856 10.4647L29.4593 11.8961C29.5252 11.9605 29.5267 12.0015 29.5264 12.019C29.5259 12.0438 29.5147 12.1292 29.3992 12.2498L30.8442 13.6326ZM30.0919 14.3252C30.3471 14.1044 30.6043 13.8828 30.8435 13.6333L29.3999 12.2491C29.2368 12.4192 29.0535 12.5789 28.7831 12.8129L30.0919 14.3252ZM29.7885 14.5896C29.8946 14.496 29.9943 14.4097 30.0919 14.3252L28.7831 12.8129C28.6862 12.8968 28.5797 12.9889 28.4656 13.0896L29.7885 14.5896ZM30.2136 13.471C30.0773 13.3515 29.9467 13.2369 29.81 13.1091L28.4441 14.57C28.6075 14.7228 28.7612 14.8575 28.8953 14.975L30.2136 13.471ZM30.8309 14.0452C30.6246 13.8304 30.4074 13.6408 30.2136 13.471L28.8953 14.975C29.1007 15.155 29.2519 15.2884 29.3885 15.4306L30.8309 14.0452ZM30.8558 17.2147C31.2882 16.793 31.5316 16.2317 31.52 15.6304C31.5085 15.0349 31.2497 14.4824 30.8319 14.0462L29.3876 15.4297C29.5091 15.5565 29.5199 15.6448 29.5204 15.6691C29.5207 15.6877 29.5185 15.7253 29.4595 15.7828L30.8558 17.2147ZM27.7011 17.1222C28.12 17.5409 28.6579 17.8202 29.2568 17.8466C29.8643 17.8734 30.426 17.634 30.856 17.2145L29.4593 15.783C29.4193 15.8221 29.3899 15.837 29.3759 15.8427C29.3628 15.848 29.3538 15.849 29.3449 15.8486C29.3325 15.848 29.2473 15.8399 29.1149 15.7076L27.7011 17.1222ZM27.1079 16.4338C27.284 16.6507 27.4738 16.8854 27.6862 17.107L29.1298 15.7228C28.9846 15.5713 28.847 15.4028 28.6606 15.1732L27.1079 16.4338ZM26.805 16.0657C26.9116 16.192 27.0091 16.3121 27.1079 16.4338L28.6606 15.1732C28.5631 15.053 28.454 14.9187 28.3333 14.7756L26.805 16.0657ZM27.9305 16.5038C28.0445 16.3787 28.1625 16.2492 28.2971 16.1062L26.8411 14.7351C26.6938 14.8915 26.5656 15.0322 26.4523 15.1566L27.9305 16.5038ZM27.3381 17.1251C27.5488 16.9232 27.7394 16.7134 27.9305 16.5038L26.4523 15.1566C26.2521 15.3762 26.1077 15.5341 25.9546 15.6807L27.3381 17.1251ZM24.1863 17.2145C24.6187 17.6364 25.1816 17.8731 25.7924 17.8402C26.3877 17.8081 26.9185 17.527 27.3381 17.1251L25.9546 15.6807C25.799 15.8298 25.7006 15.8422 25.6847 15.8431C25.6758 15.8435 25.6695 15.8426 25.6603 15.839C25.6502 15.8349 25.6229 15.8219 25.5831 15.783L24.1863 17.2145ZM24.2351 13.9976C23.819 14.4312 23.5399 14.9808 23.5169 15.5879C23.4934 16.2081 23.7425 16.7812 24.1861 17.2143L25.5833 15.7832C25.5431 15.744 25.528 15.7152 25.5223 15.7016C25.5169 15.6886 25.5149 15.6776 25.5155 15.6637C25.5164 15.639 25.531 15.5358 25.6781 15.3824L24.2351 13.9976ZM24.7373 13.4989C24.5657 13.6651 24.3987 13.8266 24.2341 13.9986L25.6791 15.3814C25.8129 15.2416 25.952 15.1067 26.1288 14.9354L24.7373 13.4989ZM8.93396 11.6537C8.78659 11.6537 8.64689 11.6523 8.50697 11.651L8.48722 13.6509C8.62601 13.6522 8.77525 13.6537 8.93396 13.6537V11.6537ZM7.93237 12.315C7.93316 12.424 7.93396 12.5351 7.93396 12.6537H9.93396C9.93396 12.5268 9.9331 12.4088 9.93232 12.3006L7.93237 12.315ZM7.94816 11.4133C7.9276 11.7215 7.93022 12.0174 7.93237 12.315L9.93232 12.3006C9.93006 11.9889 9.92894 11.768 9.94372 11.5464L7.94816 11.4133ZM10.1622 9.25823C8.87918 9.23534 7.9864 10.25 7.9465 11.4465L9.94538 11.5132C9.9498 11.3808 9.99463 11.3174 10.0168 11.2948C10.0351 11.2761 10.063 11.2568 10.1265 11.2579L10.1622 9.25823ZM12.3302 11.471C12.2909 10.271 11.4103 9.25808 10.1443 9.25808V11.2581C10.2023 11.2581 10.2321 11.2763 10.2542 11.2993C10.2793 11.3255 10.3267 11.3949 10.3313 11.5366L12.3302 11.471ZM12.3335 12.2384C12.3361 11.9877 12.3389 11.7308 12.3302 11.4705L10.3313 11.5371C10.3383 11.7464 10.3363 11.959 10.3336 12.2179L12.3335 12.2384ZM12.3308 12.6537C12.3308 12.5101 12.3321 12.3742 12.3335 12.2384L10.3336 12.2179C10.3323 12.3526 10.3308 12.4984 10.3308 12.6537H12.3308ZM11.7252 11.651C11.5928 11.6524 11.4634 11.6537 11.3308 11.6537V13.6537C11.4753 13.6537 11.6148 13.6523 11.7458 13.6509L11.7252 11.651ZM12.5135 11.6542C12.2434 11.6455 11.9769 11.6484 11.7252 11.651L11.7458 13.6509C12.005 13.6483 12.2287 13.6461 12.449 13.6532L12.5135 11.6542ZM14.7156 13.8396C14.7156 12.5789 13.7079 11.694 12.5145 11.6543L12.4479 13.6532C12.5802 13.6576 12.647 13.7025 12.6735 13.7281C12.6972 13.7509 12.7156 13.7817 12.7156 13.8396H14.7156ZM12.5145 16.0368C13.7146 15.9968 14.7156 15.1058 14.7156 13.8396H12.7156C12.7156 13.9083 12.6936 13.9421 12.671 13.964C12.6454 13.9889 12.5801 14.0335 12.4479 14.0379L12.5145 16.0368ZM11.7545 16.0402C12.0062 16.0428 12.2561 16.0454 12.5145 16.0368L12.4479 14.0379C12.2403 14.0449 12.0342 14.0429 11.7747 14.0403L11.7545 16.0402ZM11.3188 16.0374C11.4732 16.0374 11.6153 16.0388 11.7545 16.0402L11.7746 14.0403C11.6364 14.0389 11.4847 14.0374 11.3188 14.0374V16.0374ZM12.3215 15.4181C12.3201 15.2912 12.3188 15.1666 12.3188 15.0374H10.3188C10.3188 15.1792 10.3203 15.3143 10.3216 15.4398L12.3215 15.4181ZM12.3182 16.1619C12.327 15.9071 12.3241 15.6559 12.3215 15.4181L10.3216 15.4398C10.3243 15.6858 10.3263 15.8912 10.3194 16.0929L12.3182 16.1619ZM10.1616 18.4329C10.7656 18.4225 11.3261 18.1856 11.7304 17.7374C12.1268 17.2978 12.3097 16.7268 12.3187 16.1428L10.3189 16.112C10.3159 16.3065 10.2591 16.3825 10.2451 16.398C10.237 16.407 10.2291 16.4127 10.2179 16.4176C10.2061 16.4228 10.1783 16.4323 10.1271 16.4332L10.1616 18.4329ZM7.93407 16.1182C7.94293 16.7204 8.13202 17.3073 8.54131 17.7539C8.95974 18.2104 9.54031 18.4434 10.1613 18.4329L10.1274 16.4332C10.078 16.434 10.052 16.4255 10.0419 16.4212C10.0323 16.4173 10.0246 16.4122 10.0157 16.4025C9.99954 16.3849 9.93697 16.301 9.93385 16.0887L7.93407 16.1182ZM7.93396 15.0374V16.1034H9.93396V15.0374H7.93396ZM8.5061 16.0402C8.64595 16.0388 8.78609 16.0374 8.93396 16.0374V14.0374C8.77472 14.0374 8.62501 14.0389 8.48627 14.0403L8.5061 16.0402ZM7.71532 16.0369C7.98288 16.0455 8.24709 16.0427 8.5061 16.0402L8.48627 14.0403C8.2194 14.0429 7.99791 14.0449 7.77976 14.0379L7.71532 16.0369ZM5.53733 13.8944C5.56038 15.1156 6.54039 15.9763 7.69591 16.0361L7.79917 14.0387C7.67585 14.0323 7.60947 13.9893 7.58043 13.9613C7.55374 13.9355 7.53788 13.9048 7.53697 13.8566L5.53733 13.8944ZM7.68564 11.655C6.4763 11.7154 5.49198 12.652 5.53781 13.9119L7.53649 13.8391C7.53447 13.7837 7.55145 13.752 7.57442 13.7284C7.59926 13.7029 7.66107 13.6587 7.78547 13.6525L7.68564 11.655ZM8.50697 11.651C8.24604 11.6484 7.97945 11.6456 7.70434 11.6542L7.76677 13.6532C7.99392 13.6461 8.21932 13.6482 8.48721 13.6509L8.50697 11.651Z" fill="#E60000" mask="url(#path-1-inside-1_184_903)"/>
</g>
</g>
<defs>
<filter id="filter0_b_184_903" x="-11.4722" y="-11.601" width="60" height="50.3903" filterUnits="userSpaceOnUse" color-interpolation-filters="sRGB">
<feFlood flood-opacity="0" result="BackgroundImageFix"/>
<feGaussianBlur in="BackgroundImageFix" stdDeviation="6"/>
<feComposite in2="SourceAlpha" operator="in" result="effect1_backgroundBlur_184_903"/>
<feBlend mode="normal" in="SourceGraphic" in2="effect1_backgroundBlur_184_903" result="shape"/>
</filter>
<clipPath id="clip0_184_903">
<rect width="36" height="26.4" fill="white" transform="translate(0.533203 0.399994)"/>
</clipPath>
</defs>
</svg>
