<svg width="38" height="27" viewBox="0 0 38 27" fill="none" xmlns="http://www.w3.org/2000/svg">
<g clip-path="url(#clip0_184_898)">
<g filter="url(#filter0_b_184_898)">
<mask id="path-1-inside-1_184_898" fill="white">
<path fill-rule="evenodd" clip-rule="evenodd" d="M32.1365 0.200012H19.1305H6.13669C4.81777 0.200012 4.4514 0.565467 4.4514 1.84456V15.61C4.4514 16.8769 4.82998 17.2546 6.07563 17.2546H32.1365C33.3821 17.2546 33.7607 16.8769 33.7607 15.61V1.84456C33.7607 0.577649 33.3821 0.200012 32.1365 0.200012ZM2.37533 27H19.045H35.849C36.1421 27 36.4596 26.9878 36.7405 26.8904C37.3877 26.6711 37.5831 26.1351 37.2534 25.5382C36.0935 23.419 34.9213 21.312 33.7492 19.2049L33.7485 19.2037C33.4676 18.7164 33.0646 18.4727 32.5029 18.4727H5.69705C5.13529 18.4727 4.73229 18.7164 4.46362 19.2037L4.4636 19.2037C3.29123 21.3111 2.11887 23.4186 0.958714 25.5382C0.628984 26.1351 0.836592 26.6711 1.48384 26.8904C1.75251 26.9878 2.07002 27 2.37533 27ZM19.8632 24.5664C19.6068 24.565 19.3503 24.5637 19.0938 24.5637C18.8378 24.5637 18.5818 24.565 18.3254 24.5663C17.8111 24.5691 17.295 24.5718 16.7735 24.5637C15.9919 24.5515 15.4546 24.0642 15.4424 23.3698C15.4302 22.6511 15.9797 22.1395 16.798 22.1395C18.3367 22.1273 19.8876 22.1273 21.4264 22.1395C22.208 22.1517 22.7453 22.6389 22.7575 23.3333C22.7697 24.0398 22.2202 24.5515 21.402 24.5637C20.889 24.5718 20.3761 24.5691 19.8632 24.5664Z"/>
</mask>
<path fill-rule="evenodd" clip-rule="evenodd" d="M32.1365 0.200012H19.1305H6.13669C4.81777 0.200012 4.4514 0.565467 4.4514 1.84456V15.61C4.4514 16.8769 4.82998 17.2546 6.07563 17.2546H32.1365C33.3821 17.2546 33.7607 16.8769 33.7607 15.61V1.84456C33.7607 0.577649 33.3821 0.200012 32.1365 0.200012ZM2.37533 27H19.045H35.849C36.1421 27 36.4596 26.9878 36.7405 26.8904C37.3877 26.6711 37.5831 26.1351 37.2534 25.5382C36.0935 23.419 34.9213 21.312 33.7492 19.2049L33.7485 19.2037C33.4676 18.7164 33.0646 18.4727 32.5029 18.4727H5.69705C5.13529 18.4727 4.73229 18.7164 4.46362 19.2037L4.4636 19.2037C3.29123 21.3111 2.11887 23.4186 0.958714 25.5382C0.628984 26.1351 0.836592 26.6711 1.48384 26.8904C1.75251 26.9878 2.07002 27 2.37533 27ZM19.8632 24.5664C19.6068 24.565 19.3503 24.5637 19.0938 24.5637C18.8378 24.5637 18.5818 24.565 18.3254 24.5663C17.8111 24.5691 17.295 24.5718 16.7735 24.5637C15.9919 24.5515 15.4546 24.0642 15.4424 23.3698C15.4302 22.6511 15.9797 22.1395 16.798 22.1395C18.3367 22.1273 19.8876 22.1273 21.4264 22.1395C22.208 22.1517 22.7453 22.6389 22.7575 23.3333C22.7697 24.0398 22.2202 24.5515 21.402 24.5637C20.889 24.5718 20.3761 24.5691 19.8632 24.5664Z" fill="#E60000"/>
<path d="M36.7405 26.8904L36.4196 25.9432L36.4127 25.9456L36.7405 26.8904ZM37.2534 25.5382L36.3762 26.0183L36.3781 26.0217L37.2534 25.5382ZM33.7492 19.2049L34.6231 18.7188L34.6223 18.7173L33.7492 19.2049ZM33.7485 19.2037L34.6216 18.716L34.6149 18.7042L33.7485 19.2037ZM4.46362 19.2037L5.33851 19.688L5.33933 19.6865L4.46362 19.2037ZM4.4636 19.2037L5.33748 19.6898L5.33849 19.688L4.4636 19.2037ZM0.958714 25.5382L1.83405 26.0217L1.83591 26.0183L0.958714 25.5382ZM1.48384 26.8904L1.82483 25.9503L1.8148 25.9467L1.8047 25.9433L1.48384 26.8904ZM19.8632 24.5664L19.8579 25.5663H19.8579L19.8632 24.5664ZM18.3254 24.5663L18.3201 23.5664H18.3201L18.3254 24.5663ZM16.7735 24.5637L16.7891 23.5638H16.7891L16.7735 24.5637ZM15.4424 23.3698L14.4425 23.3868L14.4426 23.3874L15.4424 23.3698ZM16.798 22.1395V23.1395L16.8059 23.1394L16.798 22.1395ZM21.4264 22.1395L21.442 21.1396L21.4343 21.1395L21.4264 22.1395ZM22.7575 23.3333L23.7574 23.316L23.7574 23.3157L22.7575 23.3333ZM21.402 24.5637L21.3871 23.5638L21.3861 23.5638L21.402 24.5637ZM19.1305 1.20001H32.1365V-0.799988H19.1305V1.20001ZM6.13669 1.20001H19.1305V-0.799988H6.13669V1.20001ZM5.4514 1.84456C5.4514 1.56224 5.47278 1.3943 5.49787 1.29656C5.51992 1.21063 5.53323 1.22367 5.49927 1.25695C5.46663 1.28893 5.45888 1.27207 5.55654 1.24797C5.66412 1.22142 5.84321 1.20001 6.13669 1.20001V-0.799988C5.46189 -0.799988 4.66561 -0.72618 4.09963 -0.171695C3.52664 0.389666 3.4514 1.18444 3.4514 1.84456H5.4514ZM5.4514 15.61V1.84456H3.4514V15.61H5.4514ZM6.07563 16.2546C5.80531 16.2546 5.6436 16.233 5.54981 16.2084C5.46693 16.1867 5.47671 16.1732 5.5069 16.2037C5.53652 16.2336 5.52127 16.2408 5.49847 16.1522C5.47308 16.0536 5.4514 15.8862 5.4514 15.61H3.4514C3.4514 16.2745 3.53368 17.0535 4.0859 17.6111C4.64128 18.1718 5.41918 18.2546 6.07563 18.2546V16.2546ZM32.1365 16.2546H6.07563V18.2546H32.1365V16.2546ZM32.7607 15.61C32.7607 15.8862 32.739 16.0536 32.7136 16.1522C32.6908 16.2408 32.6756 16.2336 32.7052 16.2037C32.7354 16.1732 32.7452 16.1867 32.6623 16.2084C32.5685 16.233 32.4068 16.2546 32.1365 16.2546V18.2546C32.7929 18.2546 33.5708 18.1718 34.1262 17.6111C34.6784 17.0535 34.7607 16.2745 34.7607 15.61H32.7607ZM32.7607 1.84456V15.61H34.7607V1.84456H32.7607ZM32.1365 1.20001C32.4068 1.20001 32.5685 1.22158 32.6623 1.24616C32.7452 1.26787 32.7354 1.28137 32.7052 1.25089C32.6756 1.22098 32.6908 1.21374 32.7136 1.30233C32.739 1.40099 32.7607 1.56835 32.7607 1.84456H34.7607C34.7607 1.18003 34.6784 0.401058 34.1262 -0.1565C33.5708 -0.717262 32.7929 -0.799988 32.1365 -0.799988V1.20001ZM19.045 26H2.37533V28H19.045V26ZM35.849 26H19.045V28H35.849V26ZM36.4127 25.9456C36.3054 25.9829 36.1382 26 35.849 26V28C36.146 28 36.6138 27.9928 37.0683 27.8351L36.4127 25.9456ZM36.3781 26.0217C36.4105 26.0804 36.4127 26.1065 36.4118 26.0997C36.4113 26.0959 36.4102 26.0844 36.4121 26.0667C36.414 26.0487 36.4185 26.0274 36.427 26.0047C36.4355 25.982 36.4465 25.962 36.4581 25.9456C36.4695 25.9294 36.4796 25.9197 36.4846 25.9153C36.4943 25.9069 36.4801 25.9228 36.4196 25.9433L37.0614 27.8375C37.5886 27.6589 38.0791 27.295 38.2996 26.7071C38.5183 26.1242 38.3923 25.5318 38.1287 25.0547L36.3781 26.0217ZM32.8753 19.6911C34.0477 21.7986 35.2182 23.9026 36.3762 26.0183L38.1306 25.0581C36.9688 22.9353 35.795 20.8253 34.6231 18.7188L32.8753 19.6911ZM32.8755 19.6913L32.8762 19.6926L34.6223 18.7173L34.6215 18.716L32.8755 19.6913ZM32.5029 19.4727C32.6344 19.4727 32.6939 19.4996 32.7221 19.5163C32.7523 19.5341 32.8101 19.5782 32.8821 19.7031L34.6149 18.7042C34.406 18.3419 34.1219 18.0204 33.7399 17.7946C33.356 17.5677 32.9331 17.4727 32.5029 17.4727V19.4727ZM5.69705 19.4727H32.5029V17.4727H5.69705V19.4727ZM5.33933 19.6865C5.40413 19.569 5.45666 19.5298 5.48209 19.5147C5.50685 19.4999 5.56474 19.4727 5.69705 19.4727V17.4727C5.26761 17.4727 4.84311 17.5674 4.45876 17.7963C4.07508 18.0248 3.79178 18.3511 3.58791 18.7208L5.33933 19.6865ZM5.33849 19.688L5.33851 19.688L3.58873 18.7193L3.5887 18.7194L5.33849 19.688ZM1.83591 26.0183C2.99414 23.9022 4.16484 21.7978 5.33748 19.6898L3.58971 18.7176C2.41763 20.8245 1.24359 22.9349 0.0815139 25.0581L1.83591 26.0183ZM1.8047 25.9433C1.74337 25.9225 1.72661 25.9057 1.73369 25.9117C1.73748 25.915 1.74645 25.9235 1.75714 25.9383C1.76796 25.9533 1.77864 25.9721 1.78717 25.9941C1.79571 26.0161 1.80056 26.0373 1.8027 26.0558C1.8048 26.074 1.80391 26.0864 1.80328 26.0916C1.8021 26.1012 1.803 26.0779 1.83404 26.0217L0.0833847 25.0547C-0.184015 25.5387 -0.303321 26.1354 -0.0773549 26.7177C0.148558 27.2998 0.638998 27.66 1.16297 27.8375L1.8047 25.9433ZM2.37533 26C2.06598 26 1.91023 25.9813 1.82483 25.9503L1.14285 27.8304C1.59478 27.9944 2.07407 28 2.37533 28V26ZM19.0938 25.5637C19.3472 25.5637 19.601 25.565 19.8579 25.5663L19.8685 23.5664C19.6125 23.565 19.3534 23.5637 19.0938 23.5637V25.5637ZM18.3306 25.5663C18.5875 25.565 18.8409 25.5637 19.0938 25.5637V23.5637C18.8348 23.5637 18.5761 23.565 18.3201 23.5664L18.3306 25.5663ZM16.7579 25.5635C17.2916 25.5718 17.818 25.569 18.3307 25.5663L18.3201 23.5664C17.8042 23.5691 17.2985 23.5717 16.7891 23.5638L16.7579 25.5635ZM14.4426 23.3874C14.4534 24.0023 14.7037 24.5639 15.1506 24.966C15.5903 25.3616 16.1638 25.5543 16.7579 25.5635L16.7891 23.5638C16.6017 23.5609 16.5157 23.5038 16.4883 23.4792C16.4681 23.461 16.4436 23.4317 16.4422 23.3522L14.4426 23.3874ZM16.798 21.1395C16.1814 21.1395 15.5854 21.3343 15.134 21.7471C14.6747 22.1671 14.4318 22.7541 14.4425 23.3868L16.4423 23.3528C16.4414 23.304 16.4501 23.2757 16.456 23.2616C16.4618 23.2477 16.4699 23.2356 16.4836 23.2231C16.5084 23.2005 16.5963 23.1395 16.798 23.1395V21.1395ZM21.4343 21.1395C19.8903 21.1273 18.3341 21.1273 16.79 21.1395L16.8059 23.1394C18.3393 23.1273 19.885 23.1273 21.4185 23.1394L21.4343 21.1395ZM23.7574 23.3157C23.7465 22.7008 23.4962 22.1392 23.0493 21.7372C22.6096 21.3416 22.0361 21.1489 21.442 21.1396L21.4108 23.1393C21.5982 23.1423 21.6842 23.1993 21.7116 23.224C21.7318 23.2422 21.7563 23.2714 21.7577 23.3509L23.7574 23.3157ZM21.4168 25.5635C22.0293 25.5544 22.619 25.3555 23.066 24.9468C23.5212 24.5305 23.7683 23.9484 23.7574 23.316L21.7577 23.3506C21.7584 23.3939 21.7507 23.4187 21.7454 23.4313C21.74 23.4439 21.7318 23.4567 21.7163 23.4709C21.687 23.4977 21.5928 23.5607 21.3871 23.5638L21.4168 25.5635ZM19.8579 25.5663C20.3691 25.569 20.8926 25.5718 21.4178 25.5635L21.3861 23.5638C20.8855 23.5717 20.3832 23.5691 19.8685 23.5664L19.8579 25.5663Z" fill="#E60000" mask="url(#path-1-inside-1_184_898)"/>
</g>
</g>
<defs>
<filter id="filter0_b_184_898" x="-11.196" y="-11.8" width="60.607" height="50.8" filterUnits="userSpaceOnUse" color-interpolation-filters="sRGB">
<feFlood flood-opacity="0" result="BackgroundImageFix"/>
<feGaussianBlur in="BackgroundImageFix" stdDeviation="6"/>
<feComposite in2="SourceAlpha" operator="in" result="effect1_backgroundBlur_184_898"/>
<feBlend mode="normal" in="SourceGraphic" in2="effect1_backgroundBlur_184_898" result="shape"/>
</filter>
<clipPath id="clip0_184_898">
<rect width="36.6" height="26.8" fill="white" transform="translate(0.799988 0.200012)"/>
</clipPath>
</defs>
</svg>
