<svg width="20" height="21" viewBox="0 0 20 21" fill="none" xmlns="http://www.w3.org/2000/svg">
<path d="M18.75 9.25H11.25V1.75C11.25 1.41848 11.1183 1.10054 10.8839 0.866117C10.6495 0.631696 10.3315 0.5 10 0.5C9.66848 0.5 9.35054 0.631696 9.11612 0.866117C8.8817 1.10054 8.75 1.41848 8.75 1.75V9.25H1.25C0.918479 9.25 0.600537 9.3817 0.366117 9.61612C0.131696 9.85054 0 10.1685 0 10.5C0 10.8315 0.131696 11.1495 0.366117 11.3839C0.600537 11.6183 0.918479 11.75 1.25 11.75H8.75V19.25C8.75 19.5815 8.8817 19.8995 9.11612 20.1339C9.35054 20.3683 9.66848 20.5 10 20.5C10.3315 20.5 10.6495 20.3683 10.8839 20.1339C11.1183 19.8995 11.25 19.5815 11.25 19.25V11.75H18.75C19.0815 11.75 19.3995 11.6183 19.6339 11.3839C19.8683 11.1495 20 10.8315 20 10.5C20 10.1685 19.8683 9.85054 19.6339 9.61612C19.3995 9.3817 19.0815 9.25 18.75 9.25Z" fill="white"/>
</svg>
