<svg width="21" height="37" viewBox="0 0 21 37" fill="none" xmlns="http://www.w3.org/2000/svg">
<g clip-path="url(#clip0_184_844)">
<g filter="url(#filter0_b_184_844)">
<path d="M0.400016 18.6C0.400016 13.9566 0.388773 9.30206 0.400016 4.65871C0.400016 2.7474 1.36691 1.35327 3.0646 0.802369C3.46935 0.667453 3.90782 0.611238 4.33506 0.611238C8.25886 0.599995 12.1827 0.599995 16.0952 0.611238C18.3775 0.622481 20.0415 2.2752 20.0415 4.54628C20.0527 13.9229 20.0527 23.2883 20.0415 32.665C20.0415 34.936 18.3775 36.6 16.1065 36.6C12.2276 36.6112 8.3488 36.6112 4.46997 36.6C2.04149 36.6 0.422502 35.0035 0.411259 32.5525C0.388773 27.8979 0.400016 23.2546 0.400016 18.6ZM10.2264 3.8717C9.46185 3.8717 8.69733 3.8717 7.92157 3.8717C7.31445 3.88294 6.97716 4.16402 6.96591 4.65871C6.95467 5.16464 7.26947 5.51317 7.85411 5.51317C9.42813 5.53566 10.9909 5.53566 12.5649 5.51317C13.1271 5.50193 13.5093 5.11967 13.4868 4.65871C13.4644 4.1865 13.0933 3.8717 12.5199 3.8717C11.7554 3.8717 10.9909 3.8717 10.2264 3.8717ZM10.2264 30.0791C9.30445 30.0791 8.57366 30.8099 8.5849 31.7093C8.59614 32.6087 9.34942 33.3395 10.2489 33.3283C11.1258 33.317 11.8341 32.5975 11.8341 31.7093C11.8454 30.7761 11.1483 30.0791 10.2264 30.0791Z" fill="#E60000"/>
<path d="M7.92157 3.37161V3.3717H7.92611H7.93066H7.9352H7.93975H7.94429H7.94883H7.95338H7.95792H7.96247H7.96701H7.97155H7.97609H7.98064H7.98518H7.98972H7.99426H7.9988H8.00334H8.00788H8.01243H8.01697H8.02151H8.02605H8.03059H8.03512H8.03966H8.0442H8.04874H8.05328H8.05782H8.06236H8.06689H8.07143H8.07597H8.0805H8.08504H8.08958H8.09411H8.09865H8.10319H8.10772H8.11226H8.11679H8.12133H8.12586H8.13039H8.13493H8.13946H8.144H8.14853H8.15306H8.1576H8.16213H8.16666H8.17119H8.17573H8.18026H8.18479H8.18932H8.19385H8.19838H8.20291H8.20744H8.21197H8.2165H8.22103H8.22556H8.23009H8.23462H8.23915H8.24368H8.24821H8.25273H8.25726H8.26179H8.26632H8.27084H8.27537H8.2799H8.28443H8.28895H8.29348H8.298H8.30253H8.30706H8.31158H8.31611H8.32063H8.32516H8.32968H8.3342H8.33873H8.34325H8.34778H8.3523H8.35682H8.36135H8.36587H8.37039H8.37491H8.37944H8.38396H8.38848H8.393H8.39752H8.40204H8.40656H8.41109H8.41561H8.42013H8.42465H8.42917H8.43369H8.4382H8.44272H8.44724H8.45176H8.45628H8.4608H8.46532H8.46984H8.47435H8.47887H8.48339H8.48791H8.49242H8.49694H8.50146H8.50597H8.51049H8.51501H8.51952H8.52404H8.52855H8.53307H8.53759H8.5421H8.54661H8.55113H8.55564H8.56016H8.56467H8.56919H8.5737H8.57821H8.58273H8.58724H8.59175H8.59627H8.60078H8.60529H8.6098H8.61432H8.61883H8.62334H8.62785H8.63236H8.63687H8.64138H8.6459H8.65041H8.65492H8.65943H8.66394H8.66845H8.67296H8.67747H8.68198H8.68649H8.69099H8.6955H8.70001H8.70452H8.70903H8.71354H8.71805H8.72255H8.72706H8.73157H8.73608H8.74058H8.74509H8.7496H8.7541H8.75861H8.76312H8.76762H8.77213H8.77664H8.78114H8.78565H8.79015H8.79466H8.79916H8.80367H8.80817H8.81268H8.81718H8.82169H8.82619H8.83069H8.8352H8.8397H8.8442H8.84871H8.85321H8.85771H8.86222H8.86672H8.87122H8.87572H8.88023H8.88473H8.88923H8.89373H8.89824H8.90274H8.90724H8.91174H8.91624H8.92074H8.92524H8.92974H8.93424H8.93874H8.94324H8.94774H8.95224H8.95674H8.96124H8.96574H8.97024H8.97474H8.97924H8.98374H8.98824H8.99274H8.99724H9.00173H9.00623H9.01073H9.01523H9.01973H9.02422H9.02872H9.03322H9.03772H9.04221H9.04671H9.05121H9.05571H9.0602H9.0647H9.06919H9.07369H9.07819H9.08268H9.08718H9.09167H9.09617H9.10067H9.10516H9.10966H9.11415H9.11865H9.12314H9.12764H9.13213H9.13663H9.14112H9.14561H9.15011H9.1546H9.1591H9.16359H9.16808H9.17258H9.17707H9.18156H9.18606H9.19055H9.19504H9.19954H9.20403H9.20852H9.21301H9.21751H9.222H9.22649H9.23098H9.23548H9.23997H9.24446H9.24895H9.25344H9.25793H9.26242H9.26692H9.27141H9.2759H9.28039H9.28488H9.28937H9.29386H9.29835H9.30284H9.30733H9.31182H9.31631H9.3208H9.32529H9.32978H9.33427H9.33876H9.34325H9.34774H9.35223H9.35672H9.36121H9.3657H9.37018H9.37467H9.37916H9.38365H9.38814H9.39263H9.39712H9.4016H9.40609H9.41058H9.41507H9.41956H9.42404H9.42853H9.43302H9.43751H9.44199H9.44648H9.45097H9.45545H9.45994H9.46443H9.46891H9.4734H9.47789H9.48238H9.48686H9.49135H9.49583H9.50032H9.50481H9.50929H9.51378H9.51826H9.52275H9.52724H9.53172H9.53621H9.54069H9.54518H9.54966H9.55415H9.55863H9.56312H9.56761H9.57209H9.57658H9.58106H9.58554H9.59003H9.59451H9.599H9.60348H9.60797H9.61245H9.61694H9.62142H9.62591H9.63039H9.63487H9.63936H9.64384H9.64832H9.65281H9.65729H9.66178H9.66626H9.67074H9.67523H9.67971H9.68419H9.68868H9.69316H9.69764H9.70213H9.70661H9.71109H9.71558H9.72006H9.72454H9.72902H9.73351H9.73799H9.74247H9.74695H9.75144H9.75592H9.7604H9.76488H9.76937H9.77385H9.77833H9.78281H9.78729H9.79178H9.79626H9.80074H9.80522H9.8097H9.81419H9.81867H9.82315H9.82763H9.83211H9.83659H9.84107H9.84556H9.85004H9.85452H9.859H9.86348H9.86796H9.87244H9.87693H9.88141H9.88589H9.89037H9.89485H9.89933H9.90381H9.90829H9.91277H9.91725H9.92173H9.92622H9.9307H9.93518H9.93966H9.94414H9.94862H9.9531H9.95758H9.96206H9.96654H9.97102H9.9755H9.97998H9.98446H9.98894H9.99342H9.9979H10.0024H10.0069H10.0113H10.0158H10.0203H10.0248H10.0293H10.0337H10.0382H10.0427H10.0472H10.0517H10.0561H10.0606H10.0651H10.0696H10.0741H10.0785H10.083H10.0875H10.092H10.0965H10.1009H10.1054H10.1099H10.1144H10.1189H10.1233H10.1278H10.1323H10.1368H10.1413H10.1457H10.1502H10.1547H10.1592H10.1637H10.1681H10.1726H10.1771H10.1816H10.1861H10.1905H10.195H10.1995H10.204H10.2085H10.2129H10.2174H10.2219H10.2264H10.2309H10.2353H10.2398H10.2443H10.2488H10.2533H10.2577H10.2622H10.2667H10.2712H10.2757H10.2801H10.2846H10.2891H10.2936H10.298H10.3025H10.307H10.3115H10.316H10.3204H10.3249H10.3294H10.3339H10.3384H10.3428H10.3473H10.3518H10.3563H10.3608H10.3652H10.3697H10.3742H10.3787H10.3832H10.3876H10.3921H10.3966H10.4011H10.4056H10.41H10.4145H10.419H10.4235H10.428H10.4324H10.4369H10.4414H10.4459H10.4504H10.4548H10.4593H10.4638H10.4683H10.4728H10.4772H10.4817H10.4862H10.4907H10.4952H10.4996H10.5041H10.5086H10.5131H10.5176H10.522H10.5265H10.531H10.5355H10.5399H10.5444H10.5489H10.5534H10.5579H10.5623H10.5668H10.5713H10.5758H10.5803H10.5847H10.5892H10.5937H10.5982H10.6027H10.6071H10.6116H10.6161H10.6206H10.6251H10.6295H10.634H10.6385H10.643H10.6475H10.6519H10.6564H10.6609H10.6654H10.6699H10.6743H10.6788H10.6833H10.6878H10.6923H10.6967H10.7012H10.7057H10.7102H10.7147H10.7191H10.7236H10.7281H10.7326H10.7371H10.7415H10.746H10.7505H10.755H10.7595H10.7639H10.7684H10.7729H10.7774H10.7818H10.7863H10.7908H10.7953H10.7998H10.8042H10.8087H10.8132H10.8177H10.8222H10.8266H10.8311H10.8356H10.8401H10.8446H10.849H10.8535H10.858H10.8625H10.867H10.8714H10.8759H10.8804H10.8849H10.8894H10.8938H10.8983H10.9028H10.9073H10.9118H10.9162H10.9207H10.9252H10.9297H10.9342H10.9386H10.9431H10.9476H10.9521H10.9566H10.961H10.9655H10.97H10.9745H10.979H10.9834H10.9879H10.9924H10.9969H11.0014H11.0058H11.0103H11.0148H11.0193H11.0237H11.0282H11.0327H11.0372H11.0417H11.0461H11.0506H11.0551H11.0596H11.0641H11.0685H11.073H11.0775H11.082H11.0865H11.0909H11.0954H11.0999H11.1044H11.1089H11.1133H11.1178H11.1223H11.1268H11.1313H11.1357H11.1402H11.1447H11.1492H11.1537H11.1581H11.1626H11.1671H11.1716H11.1761H11.1805H11.185H11.1895H11.194H11.1985H11.2029H11.2074H11.2119H11.2164H11.2209H11.2253H11.2298H11.2343H11.2388H11.2432H11.2477H11.2522H11.2567H11.2612H11.2656H11.2701H11.2746H11.2791H11.2836H11.288H11.2925H11.297H11.3015H11.306H11.3104H11.3149H11.3194H11.3239H11.3284H11.3328H11.3373H11.3418H11.3463H11.3508H11.3552H11.3597H11.3642H11.3687H11.3732H11.3776H11.3821H11.3866H11.3911H11.3956H11.4H11.4045H11.409H11.4135H11.418H11.4224H11.4269H11.4314H11.4359H11.4404H11.4448H11.4493H11.4538H11.4583H11.4628H11.4672H11.4717H11.4762H11.4807H11.4852H11.4896H11.4941H11.4986H11.5031H11.5075H11.512H11.5165H11.521H11.5255H11.5299H11.5344H11.5389H11.5434H11.5479H11.5523H11.5568H11.5613H11.5658H11.5703H11.5747H11.5792H11.5837H11.5882H11.5927H11.5971H11.6016H11.6061H11.6106H11.6151H11.6195H11.624H11.6285H11.633H11.6375H11.6419H11.6464H11.6509H11.6554H11.6599H11.6643H11.6688H11.6733H11.6778H11.6823H11.6867H11.6912H11.6957H11.7002H11.7047H11.7091H11.7136H11.7181H11.7226H11.727H11.7315H11.736H11.7405H11.745H11.7494H11.7539H11.7584H11.7629H11.7674H11.7718H11.7763H11.7808H11.7853H11.7898H11.7942H11.7987H11.8032H11.8077H11.8122H11.8166H11.8211H11.8256H11.8301H11.8346H11.839H11.8435H11.848H11.8525H11.857H11.8614H11.8659H11.8704H11.8749H11.8794H11.8838H11.8883H11.8928H11.8973H11.9018H11.9062H11.9107H11.9152H11.9197H11.9242H11.9286H11.9331H11.9376H11.9421H11.9466H11.951H11.9555H11.96H11.9645H11.9689H11.9734H11.9779H11.9824H11.9869H11.9913H11.9958H12.0003H12.0048H12.0093H12.0137H12.0182H12.0227H12.0272H12.0317H12.0361H12.0406H12.0451H12.0496H12.0541H12.0585H12.063H12.0675H12.072H12.0765H12.0809H12.0854H12.0899H12.0944H12.0989H12.1033H12.1078H12.1123H12.1168H12.1213H12.1257H12.1302H12.1347H12.1392H12.1437H12.1481H12.1526H12.1571H12.1616H12.1661H12.1705H12.175H12.1795H12.184H12.1885H12.1929H12.1974H12.2019H12.2064H12.2108H12.2153H12.2198H12.2243H12.2288H12.2332H12.2377H12.2422H12.2467H12.2512H12.2556H12.2601H12.2646H12.2691H12.2736H12.278H12.2825H12.287H12.2915H12.296H12.3004H12.3049H12.3094H12.3139H12.3184H12.3228H12.3273H12.3318H12.3363H12.3408H12.3452H12.3497H12.3542H12.3587H12.3632H12.3676H12.3721H12.3766H12.3811H12.3856H12.39H12.3945H12.399H12.4035H12.408H12.4124H12.4169H12.4214H12.4259H12.4304H12.4348H12.4393H12.4438H12.4483H12.4527H12.4572H12.4617H12.4662H12.4707H12.4751H12.4796H12.4841H12.4886H12.4931H12.4975H12.502H12.5065H12.511H12.5155H12.5199C12.8959 3.3717 13.2524 3.47533 13.5278 3.70216C13.8095 3.93413 13.9687 4.26518 13.9863 4.63493M7.92157 3.37161L13.4868 4.65871M7.92157 3.37161L7.91231 3.37179C7.5409 3.37866 7.18003 3.46863 6.90184 3.69843C6.61008 3.93945 6.47438 4.2803 6.46604 4.64735L6.46604 4.6476C6.45803 5.0077 6.56721 5.36343 6.833 5.62922C7.09744 5.89366 7.46007 6.0124 7.85027 6.01317M7.92157 3.37161L6.96591 4.65871M13.9863 4.63493L13.4868 4.65871M13.9863 4.63493C13.9863 4.63473 13.9863 4.63454 13.9862 4.63435L13.4868 4.65871M13.9863 4.63493C14.0249 5.43346 13.3586 5.9974 12.5749 6.01307L12.5721 6.01313C10.9944 6.03566 9.42793 6.03568 7.85027 6.01317M13.4868 4.65871C13.5093 5.11967 13.1271 5.50193 12.5649 5.51317C10.9909 5.53566 9.42813 5.53566 7.85411 5.51317M7.85027 6.01317C7.85155 6.01317 7.85283 6.01317 7.85411 6.01317V5.51317M7.85027 6.01317C7.84917 6.01315 7.84807 6.01314 7.84697 6.01312L7.85411 5.51317M7.85411 5.51317C7.26947 5.51317 6.95467 5.16464 6.96591 4.65871M6.96591 4.65871C6.97716 4.16402 7.31445 3.88294 7.92157 3.8717L6.96591 4.65871ZM0.900016 4.65992V4.65871C0.900016 2.94448 1.7454 1.75612 3.21893 1.27796L3.21894 1.27797L3.22272 1.27671C3.56608 1.16226 3.94938 1.11124 4.33506 1.11124L4.33649 1.11124C8.25916 1.1 12.1818 1.1 16.0932 1.11123C18.1043 1.12138 19.5415 2.55474 19.5415 4.54628V4.54688C19.5527 13.9231 19.5527 23.2881 19.5415 32.6644V32.665C19.5415 34.6599 18.1014 36.1 16.1065 36.1L16.105 36.1C12.2271 36.1112 8.34928 36.1112 4.47142 36.1H4.46997C3.36752 36.1 2.4892 35.7397 1.88665 35.1408C1.28426 34.542 0.916362 33.6637 0.911254 32.5502L0.911254 32.5501C0.894398 29.061 0.896503 25.5787 0.89861 22.0916C0.899313 20.9284 0.900016 19.7647 0.900016 18.6C0.900016 17.0518 0.898767 15.5027 0.897518 13.9535C0.89502 10.8547 0.89252 7.75513 0.900016 4.65992ZM10.2551 33.8283L10.2553 33.8282C11.4079 33.8135 12.3325 32.8697 12.3341 31.7123C12.3472 30.5011 11.4247 29.5791 10.2264 29.5791C9.03408 29.5791 8.07011 30.5294 8.08494 31.7156C8.09965 32.8927 9.08111 33.8429 10.2551 33.8283Z" stroke="#E60000"/>
</g>
</g>
<defs>
<filter id="filter0_b_184_844" x="-11.605" y="-11.3972" width="43.6549" height="60.0056" filterUnits="userSpaceOnUse" color-interpolation-filters="sRGB">
<feFlood flood-opacity="0" result="BackgroundImageFix"/>
<feGaussianBlur in="BackgroundImageFix" stdDeviation="6"/>
<feComposite in2="SourceAlpha" operator="in" result="effect1_backgroundBlur_184_844"/>
<feBlend mode="normal" in="SourceGraphic" in2="effect1_backgroundBlur_184_844" result="shape"/>
</filter>
<clipPath id="clip0_184_844">
<rect width="19.6415" height="36" fill="white" transform="translate(0.400024 0.599998)"/>
</clipPath>
</defs>
</svg>
