<svg width="36" height="27" viewBox="0 0 36 27" fill="none" xmlns="http://www.w3.org/2000/svg">
<g clip-path="url(#clip0_184_892)">
<g filter="url(#filter0_b_184_892)">
<mask id="path-1-inside-1_184_892" fill="white">
<path fill-rule="evenodd" clip-rule="evenodd" d="M0.466829 17.3457V17.8257C12.0411 17.8257 23.5372 17.8257 35.078 17.8146V17.3345V2.31836C35.078 1.26891 34.6092 0.800003 33.5377 0.800003H2.00709C0.924442 0.800003 0.466829 1.26891 0.466829 2.32953V17.3457ZM16.7237 12.2975C16.2571 12.5674 15.7873 12.8392 15.3113 13.1144V6.54968C16.5193 7.25333 17.7092 7.93889 18.9126 8.63227C19.5995 9.02803 20.2908 9.42634 20.9924 9.83201C19.5459 10.6649 18.15 11.4724 16.7237 12.2975ZM29.6771 23.8188C29.5668 23.5482 29.4539 23.2712 29.341 22.9837H29.3418C30.8482 22.9837 32.2655 22.9837 33.6604 22.9725C34.4194 22.9614 34.9998 22.5371 35.0332 21.8561C35.0718 21.2079 35.0624 20.5543 35.0529 19.8954C35.0487 19.6011 35.0444 19.3057 35.0444 19.0092H0.455566V21.376C0.455566 22.5036 0.924341 22.9725 2.04047 22.9725H6.18131C5.8354 23.8431 5.5118 24.6468 5.18821 25.4504L5.18795 25.451C5.05402 25.8083 4.99821 26.1655 5.44466 26.333C5.87995 26.5005 6.09202 26.2102 6.23711 25.8529C6.33519 25.6109 6.43519 25.3699 6.53513 25.129C6.7764 24.5474 7.01738 23.9665 7.23047 23.3744C7.35324 23.0507 7.52066 22.9725 7.84434 22.9725C14.463 22.9837 21.0816 22.9837 27.7003 22.9725C28.0463 22.9725 28.1914 23.0842 28.303 23.3968C28.5562 24.0689 28.8264 24.7241 29.0988 25.3845C29.1385 25.481 29.1784 25.5775 29.2182 25.6743C29.2461 25.7357 29.2712 25.7943 29.2963 25.8529C29.3215 25.9116 29.3466 25.9702 29.3745 26.0316C29.5196 26.3553 29.8209 26.5116 30.0888 26.3218C30.2674 26.199 30.4236 25.8083 30.3567 25.6073C30.1632 25.0112 29.9267 24.4312 29.6771 23.8188ZM21.9857 21.2085H17.7444C17.276 21.2085 16.8064 21.2073 16.3364 21.2061C15.3952 21.2036 14.4522 21.2011 13.5143 21.2085C13.1348 21.2085 12.7665 21.1639 12.7553 20.6838C12.7441 20.1926 13.1125 20.0921 13.5254 20.0921H21.9969C22.3987 20.0921 22.7781 20.1814 22.7781 20.6727C22.7781 21.1862 22.3763 21.2085 21.9857 21.2085Z"/>
</mask>
<path fill-rule="evenodd" clip-rule="evenodd" d="M0.466829 17.3457V17.8257C12.0411 17.8257 23.5372 17.8257 35.078 17.8146V17.3345V2.31836C35.078 1.26891 34.6092 0.800003 33.5377 0.800003H2.00709C0.924442 0.800003 0.466829 1.26891 0.466829 2.32953V17.3457ZM16.7237 12.2975C16.2571 12.5674 15.7873 12.8392 15.3113 13.1144V6.54968C16.5193 7.25333 17.7092 7.93889 18.9126 8.63227C19.5995 9.02803 20.2908 9.42634 20.9924 9.83201C19.5459 10.6649 18.15 11.4724 16.7237 12.2975ZM29.6771 23.8188C29.5668 23.5482 29.4539 23.2712 29.341 22.9837H29.3418C30.8482 22.9837 32.2655 22.9837 33.6604 22.9725C34.4194 22.9614 34.9998 22.5371 35.0332 21.8561C35.0718 21.2079 35.0624 20.5543 35.0529 19.8954C35.0487 19.6011 35.0444 19.3057 35.0444 19.0092H0.455566V21.376C0.455566 22.5036 0.924341 22.9725 2.04047 22.9725H6.18131C5.8354 23.8431 5.5118 24.6468 5.18821 25.4504L5.18795 25.451C5.05402 25.8083 4.99821 26.1655 5.44466 26.333C5.87995 26.5005 6.09202 26.2102 6.23711 25.8529C6.33519 25.6109 6.43519 25.3699 6.53513 25.129C6.7764 24.5474 7.01738 23.9665 7.23047 23.3744C7.35324 23.0507 7.52066 22.9725 7.84434 22.9725C14.463 22.9837 21.0816 22.9837 27.7003 22.9725C28.0463 22.9725 28.1914 23.0842 28.303 23.3968C28.5562 24.0689 28.8264 24.7241 29.0988 25.3845C29.1385 25.481 29.1784 25.5775 29.2182 25.6743C29.2461 25.7357 29.2712 25.7943 29.2963 25.8529C29.3215 25.9116 29.3466 25.9702 29.3745 26.0316C29.5196 26.3553 29.8209 26.5116 30.0888 26.3218C30.2674 26.199 30.4236 25.8083 30.3567 25.6073C30.1632 25.0112 29.9267 24.4312 29.6771 23.8188ZM21.9857 21.2085H17.7444C17.276 21.2085 16.8064 21.2073 16.3364 21.2061C15.3952 21.2036 14.4522 21.2011 13.5143 21.2085C13.1348 21.2085 12.7665 21.1639 12.7553 20.6838C12.7441 20.1926 13.1125 20.0921 13.5254 20.0921H21.9969C22.3987 20.0921 22.7781 20.1814 22.7781 20.6727C22.7781 21.1862 22.3763 21.2085 21.9857 21.2085Z" fill="#E60000"/>
<path d="M0.466829 17.8257H-0.533171V18.8257H0.466829V17.8257ZM35.078 17.8146L35.079 18.8146L36.078 18.8136V17.8146H35.078ZM15.3113 13.1144H14.3113V14.8477L15.8119 13.9801L15.3113 13.1144ZM16.7237 12.2975L16.2229 11.4319L16.7237 12.2975ZM15.3113 6.54968L15.8147 5.68559L14.3113 4.80987V6.54968H15.3113ZM18.9126 8.63227L19.4118 7.7658V7.7658L18.9126 8.63227ZM20.9924 9.83201L21.4914 10.6986L22.9934 9.83386L21.493 8.96631L20.9924 9.83201ZM29.341 22.9837V21.9837H27.8739L28.4102 23.3493L29.341 22.9837ZM29.6771 23.8188L30.6032 23.4414L30.6032 23.4414L29.6771 23.8188ZM33.6604 22.9725L33.6684 23.9725L33.6751 23.9724L33.6604 22.9725ZM35.0332 21.8561L34.035 21.7967L34.0344 21.807L35.0332 21.8561ZM35.0529 19.8954L36.0528 19.881V19.881L35.0529 19.8954ZM35.0444 19.0092H36.0444V18.0092H35.0444V19.0092ZM0.455566 19.0092V18.0092H-0.544434V19.0092H0.455566ZM6.18131 22.9725L7.11064 23.3418L7.65467 21.9725H6.18131V22.9725ZM5.18821 25.4504L4.26059 25.0769L4.26059 25.0769L5.18821 25.4504ZM5.18795 25.451L4.26033 25.0775L4.25582 25.0887L4.25159 25.1L5.18795 25.451ZM5.44466 26.333L5.80374 25.3997L5.79587 25.3967L5.44466 26.333ZM6.23711 25.8529L7.16362 26.2292L7.16389 26.2286L6.23711 25.8529ZM6.53513 25.129L7.4588 25.5122L7.4588 25.5122L6.53513 25.129ZM7.23047 23.3744L6.29544 23.0199L6.29243 23.0278L6.28955 23.0358L7.23047 23.3744ZM7.84434 22.9725L7.84603 21.9725H7.84434V22.9725ZM27.7003 22.9725V21.9725L27.6986 21.9725L27.7003 22.9725ZM28.303 23.3968L27.3612 23.733L27.3641 23.7412L27.3672 23.7493L28.303 23.3968ZM29.0988 25.3845L30.0232 25.0032L30.0232 25.0032L29.0988 25.3845ZM29.2182 25.6743L28.2935 26.055L28.3003 26.0716L28.3078 26.088L29.2182 25.6743ZM29.3745 26.0316L30.287 25.6226L30.2849 25.6179L29.3745 26.0316ZM30.0888 26.3218L29.5221 25.4978L29.5107 25.5059L30.0888 26.3218ZM30.3567 25.6073L29.4055 25.9161L29.408 25.9235L30.3567 25.6073ZM16.3364 21.2061L16.3391 20.2061H16.3391L16.3364 21.2061ZM13.5143 21.2085V22.2086L13.5222 22.2085L13.5143 21.2085ZM12.7553 20.6838L11.7556 20.7065L11.7556 20.7071L12.7553 20.6838ZM1.46683 17.8257V17.3457H-0.533171V17.8257H1.46683ZM35.077 16.8146C23.5368 16.8257 12.0412 16.8257 0.466829 16.8257V18.8257C12.041 18.8257 23.5376 18.8257 35.079 18.8146L35.077 16.8146ZM34.078 17.3345V17.8146H36.078V17.3345H34.078ZM34.078 2.31836V17.3345H36.078V2.31836H34.078ZM33.5377 1.8C33.9526 1.8 34.0239 1.89391 34.0064 1.87659C33.9864 1.85681 34.078 1.91936 34.078 2.31836H36.078C36.078 1.66791 35.9352 0.971277 35.4129 0.454689C34.8931 -0.0594525 34.1943 -0.199997 33.5377 -0.199997V1.8ZM2.00709 1.8H33.5377V-0.199997H2.00709V1.8ZM1.46683 2.32953C1.46683 1.91664 1.55942 1.85278 1.53817 1.87404C1.51704 1.89518 1.58372 1.8 2.00709 1.8V-0.199997C1.34781 -0.199997 0.644361 -0.0607209 0.123761 0.460025C-0.396958 0.98089 -0.533171 1.6818 -0.533171 2.32953H1.46683ZM1.46683 17.3457V2.32953H-0.533171V17.3457H1.46683ZM15.8119 13.9801C16.2879 13.7048 16.7579 13.433 17.2244 13.1631L16.2229 11.4319C15.7564 11.7018 15.2866 11.9735 14.8108 12.2486L15.8119 13.9801ZM14.3113 6.54968V13.1144H16.3113V6.54968H14.3113ZM19.4118 7.7658C18.2081 7.07223 17.0203 6.38785 15.8147 5.68559L14.808 7.41376C16.0184 8.11881 17.2103 8.80554 18.4134 9.49874L19.4118 7.7658ZM21.493 8.96631C20.7906 8.56018 20.0986 8.1615 19.4118 7.7658L18.4134 9.49874C19.1004 9.89456 19.791 10.2925 20.4919 10.6977L21.493 8.96631ZM17.2244 13.1631C18.6509 12.3379 20.0459 11.5309 21.4914 10.6986L20.4935 8.96539C19.0459 9.79883 17.6491 10.6068 16.2229 11.4319L17.2244 13.1631ZM28.4102 23.3493C28.5258 23.6436 28.6411 23.9264 28.7511 24.1963L30.6032 23.4414C30.4925 23.1699 30.382 22.8987 30.2718 22.6181L28.4102 23.3493ZM29.3418 21.9837H29.341V23.9837H29.3418V21.9837ZM33.6524 21.9726C32.2622 21.9837 30.849 21.9837 29.3418 21.9837V23.9837C30.8475 23.9837 32.2688 23.9837 33.6684 23.9725L33.6524 21.9726ZM34.0344 21.807C34.0329 21.838 34.0266 21.8502 34.0252 21.8528C34.0234 21.8562 34.0179 21.8659 33.9996 21.8804C33.9597 21.9118 33.8499 21.9696 33.6457 21.9726L33.6751 23.9724C34.7687 23.9563 35.9641 23.2862 36.032 21.9052L34.0344 21.807ZM34.053 19.9098C34.0626 20.5752 34.071 21.1916 34.035 21.7967L36.0315 21.9155C36.0726 21.2242 36.0622 20.5335 36.0528 19.881L34.053 19.9098ZM34.0444 19.0092C34.0444 19.314 34.0488 19.6167 34.053 19.9099L36.0528 19.881C36.0485 19.5855 36.0444 19.2973 36.0444 19.0092H34.0444ZM0.455566 20.0092H35.0444V18.0092H0.455566V20.0092ZM1.45557 21.376V19.0092H-0.544434V21.376H1.45557ZM2.04047 21.9725C1.82616 21.9725 1.69274 21.9494 1.61501 21.9255C1.57815 21.9142 1.55769 21.904 1.5483 21.8985C1.54355 21.8958 1.54095 21.8939 1.53988 21.8931C1.5393 21.8927 1.53897 21.8924 1.53882 21.8923C1.53868 21.8921 1.53861 21.8921 1.53859 21.892C1.53856 21.892 1.53848 21.8919 1.53831 21.8917C1.53814 21.8915 1.5378 21.8911 1.53729 21.8905C1.53633 21.8892 1.53427 21.8863 1.53133 21.8811C1.5255 21.8709 1.51485 21.8494 1.50326 21.8111C1.47886 21.7306 1.45557 21.5939 1.45557 21.376H-0.544434C-0.544434 22.048 -0.409548 22.7693 0.120351 23.3022C0.65163 23.8365 1.37186 23.9725 2.04047 23.9725V21.9725ZM6.18131 21.9725H2.04047V23.9725H6.18131V21.9725ZM6.11584 25.8239C6.43933 25.0205 6.76376 24.2148 7.11064 23.3418L5.25198 22.6033C4.90704 23.4714 4.58427 24.273 4.26059 25.0769L6.11584 25.8239ZM6.11558 25.8245L6.11584 25.8239L4.26059 25.0769L4.26033 25.0775L6.11558 25.8245ZM5.79587 25.3967C5.79891 25.3979 5.86916 25.425 5.94602 25.5118C6.02866 25.6051 6.07124 25.7135 6.08578 25.8032C6.09825 25.8801 6.08719 25.9231 6.08975 25.9102C6.09205 25.8985 6.10041 25.8658 6.12431 25.8021L4.25159 25.1C4.17859 25.2947 4.04118 25.6891 4.11155 26.1232C4.1512 26.3678 4.25517 26.6192 4.44872 26.8378C4.6365 27.0498 4.86719 27.1844 5.09345 27.2693L5.79587 25.3967ZM5.31061 25.4767C5.28698 25.5349 5.27176 25.5619 5.2669 25.5697C5.26151 25.5782 5.28239 25.5413 5.34117 25.4962C5.40872 25.4444 5.50636 25.3978 5.62148 25.385C5.72975 25.373 5.79718 25.3972 5.80373 25.3997L5.0856 27.2663C5.57965 27.4564 6.11761 27.4212 6.55825 27.0833C6.90695 26.8159 7.07827 26.4394 7.16362 26.2292L5.31061 25.4767ZM5.61146 24.7458C5.51177 24.9861 5.41021 25.2309 5.31034 25.4773L7.16389 26.2286C7.26018 25.991 7.3586 25.7537 7.4588 25.5122L5.61146 24.7458ZM6.28955 23.0358C6.08591 23.6017 5.85425 24.1605 5.61146 24.7458L7.4588 25.5122C7.69854 24.9343 7.94886 24.3314 8.17139 23.7131L6.28955 23.0358ZM7.84434 21.9725C7.62721 21.9725 7.27615 21.9926 6.93854 22.2001C6.57946 22.4207 6.39815 22.749 6.29544 23.0199L8.1655 23.729C8.18556 23.6761 8.14935 23.8035 7.98559 23.9041C7.84331 23.9915 7.73779 23.9725 7.84434 23.9725V21.9725ZM27.6986 21.9725C21.0811 21.9837 14.4635 21.9837 7.84603 21.9725L7.84265 23.9725C14.4624 23.9837 21.0822 23.9837 27.702 23.9725L27.6986 21.9725ZM29.2448 23.0605C29.1619 22.8283 29.0087 22.4959 28.672 22.2546C28.3329 22.0116 27.9642 21.9725 27.7003 21.9725V23.9725C27.7824 23.9725 27.6592 23.9893 27.507 23.8803C27.3573 23.773 27.3325 23.6526 27.3612 23.733L29.2448 23.0605ZM30.0232 25.0032C29.7499 24.3406 29.4857 23.6996 29.2388 23.0442L27.3672 23.7493C27.6267 24.4383 27.9029 25.1076 28.1743 25.7658L30.0232 25.0032ZM30.1429 25.2937C30.1029 25.1965 30.063 25.0996 30.0232 25.0032L28.1743 25.7658C28.2141 25.8623 28.2538 25.9586 28.2935 26.055L30.1429 25.2937ZM30.2155 25.4591C30.1909 25.4018 30.1617 25.3334 30.1286 25.2606L28.3078 26.088C28.3305 26.138 28.3515 26.1869 28.3772 26.2468L30.2155 25.4591ZM30.2849 25.6179C30.2622 25.5679 30.2412 25.519 30.2155 25.4591L28.3772 26.2468C28.4017 26.3041 28.431 26.3725 28.4641 26.4453L30.2849 25.6179ZM29.5107 25.5059C29.5717 25.4626 29.6646 25.4194 29.7828 25.4073C29.9002 25.3953 30.0061 25.4178 30.0881 25.4539C30.2414 25.5213 30.2849 25.6179 30.287 25.6226L28.4619 26.4405C28.6091 26.769 28.8758 27.1056 29.2831 27.2847C29.7329 27.4825 30.2474 27.435 30.6669 27.1378L29.5107 25.5059ZM29.408 25.9235C29.3616 25.7844 29.3732 25.6849 29.3753 25.6673C29.3787 25.6391 29.3833 25.63 29.3812 25.6356C29.3793 25.6405 29.3794 25.6378 29.388 25.6251C29.3916 25.6197 29.4305 25.5609 29.5222 25.4979L30.6554 27.1458C30.9837 26.9201 31.1626 26.5759 31.2484 26.3522C31.3286 26.1434 31.4496 25.7241 31.3054 25.2912L29.408 25.9235ZM28.7511 24.1963C29.0032 24.8148 29.2253 25.3607 29.4055 25.9161L31.3078 25.2986C31.1011 24.6617 30.8503 24.0476 30.6032 23.4414L28.7511 24.1963ZM17.7444 22.2085H21.9857V20.2085H17.7444V22.2085ZM16.3338 22.2061C16.8036 22.2073 17.2745 22.2085 17.7444 22.2085V20.2085C17.2776 20.2085 16.8093 20.2073 16.3391 20.2061L16.3338 22.2061ZM13.5222 22.2085C14.454 22.2011 15.3916 22.2036 16.3338 22.2061L16.3391 20.2061C15.3987 20.2036 14.4505 20.2011 13.5063 20.2086L13.5222 22.2085ZM11.7556 20.7071C11.7613 20.9533 11.8149 21.2222 11.9625 21.4741C12.1145 21.7333 12.3276 21.9086 12.5458 22.0188C12.9244 22.21 13.3372 22.2085 13.5143 22.2085V20.2085C13.4335 20.2085 13.3912 20.2057 13.3687 20.2028C13.3447 20.1996 13.3827 20.2009 13.4475 20.2336C13.5248 20.2727 13.62 20.3468 13.6879 20.4626C13.7515 20.571 13.7549 20.6544 13.755 20.6606L11.7556 20.7071ZM13.5254 19.0921C13.2806 19.0921 12.8501 19.1132 12.4618 19.3493C11.9689 19.649 11.7432 20.1602 11.7556 20.7065L13.755 20.6611C13.7551 20.6632 13.756 20.7342 13.7065 20.8328C13.6536 20.9382 13.5738 21.0139 13.5008 21.0582C13.4379 21.0965 13.3975 21.1013 13.4112 21.0988C13.4235 21.0965 13.4586 21.0921 13.5254 21.0921V19.0921ZM21.9969 19.0921H13.5254V21.0921H21.9969V19.0921ZM23.7781 20.6727C23.7781 20.4211 23.7291 20.1523 23.5923 19.8993C23.4526 19.6408 23.252 19.4556 23.038 19.332C22.6522 19.1094 22.2299 19.0921 21.9969 19.0921V21.0921C22.0643 21.0921 22.1013 21.0962 22.1167 21.0989C22.1336 21.1018 22.0976 21.0985 22.0383 21.0643C21.9694 21.0245 21.8888 20.9538 21.8328 20.8501C21.7798 20.752 21.7781 20.6786 21.7781 20.6727H23.7781ZM21.9857 22.2085C22.1407 22.2085 22.568 22.2185 22.9519 22.0391C23.179 21.933 23.4088 21.7558 23.5709 21.4806C23.7278 21.2142 23.7781 20.9292 23.7781 20.6727H21.7781C21.7781 20.6724 21.7781 20.6505 21.7869 20.6133C21.796 20.5749 21.8139 20.5228 21.8476 20.4655C21.9222 20.339 22.0271 20.2636 22.105 20.2273C22.1681 20.1977 22.2014 20.1991 22.1657 20.2029C22.1317 20.2067 22.0806 20.2085 21.9857 20.2085V22.2085Z" fill="#E60000" mask="url(#path-1-inside-1_184_892)"/>
</g>
</g>
<defs>
<filter id="filter0_b_184_892" x="-11.5444" y="-11.2" width="58.6223" height="49.604" filterUnits="userSpaceOnUse" color-interpolation-filters="sRGB">
<feFlood flood-opacity="0" result="BackgroundImageFix"/>
<feGaussianBlur in="BackgroundImageFix" stdDeviation="6"/>
<feComposite in2="SourceAlpha" operator="in" result="effect1_backgroundBlur_184_892"/>
<feBlend mode="normal" in="SourceGraphic" in2="effect1_backgroundBlur_184_892" result="shape"/>
</filter>
<clipPath id="clip0_184_892">
<rect width="34.6" height="25.6" fill="white" transform="translate(0.466797 0.800003)"/>
</clipPath>
</defs>
</svg>
