<svg width="24" height="25" viewBox="0 0 24 25" fill="none" xmlns="http://www.w3.org/2000/svg">
<path d="M11.4807 3.9987C11.6729 3.53673 12.3273 3.53673 12.5195 3.9987L14.6454 9.11016C14.7264 9.30492 14.9096 9.43799 15.1199 9.45485L20.6381 9.89724C21.1369 9.93722 21.3391 10.5596 20.9591 10.8851L16.7548 14.4866C16.5946 14.6238 16.5246 14.8391 16.5736 15.0443L17.858 20.4292C17.9741 20.9159 17.4447 21.3005 17.0177 21.0397L12.2933 18.1541C12.1133 18.0441 11.8869 18.0441 11.7069 18.1541L6.98251 21.0397C6.55551 21.3005 6.02606 20.9159 6.14215 20.4292L7.42664 15.0443C7.47558 14.8391 7.40562 14.6238 7.24543 14.4866L3.04111 10.8851C2.66112 10.5596 2.86335 9.93722 3.36209 9.89724L8.88034 9.45485C9.0906 9.43799 9.27375 9.30492 9.35476 9.11016L11.4807 3.9987Z" stroke="#999999" stroke-width="1.5" stroke-linecap="round" stroke-linejoin="round"/>
</svg>
