<svg width="34" height="26" viewBox="0 0 34 26" fill="none" xmlns="http://www.w3.org/2000/svg">
<g clip-path="url(#clip0_184_908)">
<g filter="url(#filter0_b_184_908)">
<mask id="path-1-inside-1_184_908" fill="white">
<path fill-rule="evenodd" clip-rule="evenodd" d="M15.9782 5.59417C16.2697 5.593 16.5609 5.59184 16.8509 5.59184C17.1511 5.59184 17.4524 5.593 17.7544 5.59416C18.3609 5.5965 18.9705 5.59884 19.5801 5.59184C20.5248 5.57086 21.0601 5.0358 21.0706 4.0811C21.0811 3.2418 21.0811 2.4025 21.0706 1.5632C21.0706 0.566528 20.5143 0 19.5171 0H14.2163C13.2296 0.0104913 12.6837 0.566528 12.6732 1.57369V4.03913C12.6732 5.0463 13.2086 5.58135 14.2268 5.59184C14.808 5.59884 15.3938 5.5965 15.9782 5.59417ZM27.7781 8.40349H16.8615H5.99736C4.00298 8.40349 2.90082 9.50507 2.87983 11.5194C2.86933 12.4007 2.6699 12.6 1.79867 12.6C1.75629 12.6 1.71509 12.5988 1.67429 12.5976C1.59382 12.5953 1.51486 12.593 1.43128 12.6C0.654527 12.6525 0.087704 13.198 0.0772073 13.9848C0.0667106 15.8523 0.0667106 17.7302 0.087704 19.5977C0.087704 20.4055 0.665024 20.951 1.48377 20.993H2.0086C2.61741 21.014 2.85884 21.2448 2.89033 21.8533V22.3254C2.92182 24.025 4.08695 25.179 5.78742 25.1895C7.152 25.2 8.51657 25.2 9.88114 25.1895C11.1093 25.1895 12.2219 24.8223 13.2086 24.0984C13.5602 23.8361 13.9092 23.5739 14.2582 23.3116C14.6073 23.0493 14.9563 22.787 15.3079 22.5247C16.4101 21.7064 17.3758 21.7064 18.478 22.5352C18.7919 22.7659 19.1038 23.0007 19.4164 23.236C19.8145 23.5356 20.2136 23.836 20.6193 24.1299C21.3436 24.6649 22.1518 25.0636 23.065 25.1056C24.4337 25.1698 25.8103 25.1779 27.188 25.1859C27.3847 25.187 27.5814 25.1882 27.7781 25.1895C29.7094 25.2 30.8536 24.0669 30.8641 22.147C30.8746 21.1609 31.0425 20.993 32.0292 20.993C33.1314 20.993 33.6772 20.4579 33.6772 19.3669V14.2261C33.6772 13.135 33.1314 12.6 32.0292 12.6C31.0425 12.5895 30.8746 12.4321 30.8641 11.446C30.8431 9.52606 29.7094 8.40349 27.7781 8.40349Z"/>
</mask>
<path fill-rule="evenodd" clip-rule="evenodd" d="M15.9782 5.59417C16.2697 5.593 16.5609 5.59184 16.8509 5.59184C17.1511 5.59184 17.4524 5.593 17.7544 5.59416C18.3609 5.5965 18.9705 5.59884 19.5801 5.59184C20.5248 5.57086 21.0601 5.0358 21.0706 4.0811C21.0811 3.2418 21.0811 2.4025 21.0706 1.5632C21.0706 0.566528 20.5143 0 19.5171 0H14.2163C13.2296 0.0104913 12.6837 0.566528 12.6732 1.57369V4.03913C12.6732 5.0463 13.2086 5.58135 14.2268 5.59184C14.808 5.59884 15.3938 5.5965 15.9782 5.59417ZM27.7781 8.40349H16.8615H5.99736C4.00298 8.40349 2.90082 9.50507 2.87983 11.5194C2.86933 12.4007 2.6699 12.6 1.79867 12.6C1.75629 12.6 1.71509 12.5988 1.67429 12.5976C1.59382 12.5953 1.51486 12.593 1.43128 12.6C0.654527 12.6525 0.087704 13.198 0.0772073 13.9848C0.0667106 15.8523 0.0667106 17.7302 0.087704 19.5977C0.087704 20.4055 0.665024 20.951 1.48377 20.993H2.0086C2.61741 21.014 2.85884 21.2448 2.89033 21.8533V22.3254C2.92182 24.025 4.08695 25.179 5.78742 25.1895C7.152 25.2 8.51657 25.2 9.88114 25.1895C11.1093 25.1895 12.2219 24.8223 13.2086 24.0984C13.5602 23.8361 13.9092 23.5739 14.2582 23.3116C14.6073 23.0493 14.9563 22.787 15.3079 22.5247C16.4101 21.7064 17.3758 21.7064 18.478 22.5352C18.7919 22.7659 19.1038 23.0007 19.4164 23.236C19.8145 23.5356 20.2136 23.836 20.6193 24.1299C21.3436 24.6649 22.1518 25.0636 23.065 25.1056C24.4337 25.1698 25.8103 25.1779 27.188 25.1859C27.3847 25.187 27.5814 25.1882 27.7781 25.1895C29.7094 25.2 30.8536 24.0669 30.8641 22.147C30.8746 21.1609 31.0425 20.993 32.0292 20.993C33.1314 20.993 33.6772 20.4579 33.6772 19.3669V14.2261C33.6772 13.135 33.1314 12.6 32.0292 12.6C31.0425 12.5895 30.8746 12.4321 30.8641 11.446C30.8431 9.52606 29.7094 8.40349 27.7781 8.40349Z" fill="#E60000"/>
<path d="M15.9782 5.59417L15.9742 4.59417H15.9742L15.9782 5.59417ZM17.7544 5.59416L17.7583 4.59417L17.7544 5.59416ZM19.5801 5.59184L19.5916 6.59183L19.6023 6.59159L19.5801 5.59184ZM21.0706 4.0811L20.0707 4.06859L20.0707 4.07011L21.0706 4.0811ZM21.0706 1.5632H20.0705L20.0707 1.5757L21.0706 1.5632ZM14.2163 0V-1.00006L14.2056 -0.999943L14.2163 0ZM12.6732 1.57369L11.6732 1.56327V1.57369H12.6732ZM14.2268 5.59184L14.2388 4.59191L14.2371 4.59189L14.2268 5.59184ZM2.87983 11.5194L3.87976 11.5313L3.87978 11.5298L2.87983 11.5194ZM1.67429 12.5976L1.70311 11.598L1.7031 11.598L1.67429 12.5976ZM1.43128 12.6L1.49866 13.5977L1.50648 13.5972L1.51428 13.5965L1.43128 12.6ZM0.0772073 13.9848L-0.922733 13.9715L-0.922777 13.9792L0.0772073 13.9848ZM0.087704 19.5977H1.08777L1.08764 19.5864L0.087704 19.5977ZM1.48377 20.993L1.43258 21.9917L1.45816 21.993H1.48377V20.993ZM2.0086 20.993L2.04305 19.9936L2.02583 19.993H2.0086V20.993ZM2.89033 21.8533H3.89033V21.8274L3.88899 21.8016L2.89033 21.8533ZM2.89033 22.3254H1.89033V22.3347L1.8905 22.3439L2.89033 22.3254ZM5.78742 25.1895L5.79511 24.1895L5.79359 24.1895L5.78742 25.1895ZM9.88114 25.1895V24.1895L9.87345 24.1895L9.88114 25.1895ZM13.2086 24.0984L13.8002 24.9047L13.8065 24.9L13.2086 24.0984ZM14.2582 23.3116L13.6575 22.5122L13.6575 22.5122L14.2582 23.3116ZM15.3079 22.5247L14.7118 21.7218L14.7101 21.7231L15.3079 22.5247ZM18.478 22.5352L17.8769 23.3345L17.8858 23.341L18.478 22.5352ZM19.4164 23.236L18.815 24.035V24.035L19.4164 23.236ZM20.6193 24.1299L21.2135 23.3255L21.2059 23.32L20.6193 24.1299ZM23.065 25.1056L23.1119 24.1067L23.1109 24.1066L23.065 25.1056ZM27.188 25.1859L27.1822 26.1859H27.1822L27.188 25.1859ZM27.7781 25.1895L27.7714 26.1895L27.7726 26.1895L27.7781 25.1895ZM30.8641 22.147L29.8641 22.1364L29.8641 22.1416L30.8641 22.147ZM32.0292 12.6L32.0186 13.6H32.0292V12.6ZM30.8641 11.446L31.864 11.4353L31.864 11.435L30.8641 11.446ZM16.8509 4.59184C16.5586 4.59184 16.2654 4.59301 15.9742 4.59417L15.9821 6.59416C16.2741 6.59299 16.5632 6.59184 16.8509 6.59184V4.59184ZM17.7583 4.59417C17.4565 4.59301 17.1533 4.59184 16.8509 4.59184V6.59184C17.1488 6.59184 17.4482 6.59299 17.7506 6.59415L17.7583 4.59417ZM19.5686 4.59191C18.9679 4.59881 18.366 4.59651 17.7583 4.59417L17.7506 6.59415C18.3558 6.59648 18.973 6.59888 19.5916 6.59177L19.5686 4.59191ZM20.0707 4.07011C20.0674 4.36505 19.9876 4.46026 19.9651 4.48298C19.9423 4.50598 19.8485 4.58563 19.5579 4.59209L19.6023 6.59159C20.2564 6.57707 20.9025 6.3787 21.3862 5.89025C21.8702 5.40152 22.0633 4.75186 22.0706 4.09209L20.0707 4.07011ZM20.0707 1.5757C20.0811 2.40667 20.0811 3.23763 20.0707 4.06859L22.0705 4.0936C22.0811 3.24597 22.0811 2.39833 22.0705 1.55069L20.0707 1.5757ZM19.5171 1C19.8288 1 19.9311 1.08512 19.9574 1.11163C19.9851 1.1396 20.0706 1.24674 20.0706 1.5632H22.0706C22.0706 0.882981 21.878 0.208531 21.3782 -0.295935C20.877 -0.801852 20.2026 -1 19.5171 -1V1ZM14.2163 1H19.5171V-1H14.2163V1ZM13.6732 1.58411C13.6766 1.25353 13.7643 1.14215 13.7926 1.11332C13.8181 1.08736 13.917 1.00324 14.2269 0.999943L14.2056 -0.999943C13.5289 -0.992748 12.8615 -0.793602 12.3648 -0.287129C11.8708 0.216466 11.6803 0.886688 11.6733 1.56327L13.6732 1.58411ZM13.6732 4.03913V1.57369H11.6732V4.03913H13.6732ZM14.2371 4.59189C13.8928 4.58835 13.7925 4.49934 13.7751 4.48195C13.7595 4.46633 13.6732 4.37223 13.6732 4.03913H11.6732C11.6732 4.7132 11.8547 5.3902 12.3613 5.89653C12.8661 6.40107 13.5426 6.58484 14.2165 6.59179L14.2371 4.59189ZM15.9742 4.59417C15.3885 4.59651 14.8106 4.5988 14.2388 4.59191L14.2147 6.59177C14.8053 6.59888 15.3992 6.59649 15.9821 6.59416L15.9742 4.59417ZM16.8615 9.40349H27.7781V7.40349H16.8615V9.40349ZM5.99736 9.40349H16.8615V7.40349H5.99736V9.40349ZM3.87978 11.5298C3.88845 10.6975 4.1166 10.2021 4.4055 9.91336C4.69289 9.62612 5.1804 9.40349 5.99736 9.40349V7.40349C4.81994 7.40349 3.75918 7.73166 2.99165 8.49878C2.22563 9.2644 1.8922 10.3269 1.87989 11.509L3.87978 11.5298ZM1.79867 13.6C2.21124 13.6 2.88604 13.5801 3.36895 13.0975C3.84776 12.6189 3.87482 11.9463 3.87976 11.5313L1.8799 11.5075C1.8788 11.6003 1.8753 11.6723 1.8702 11.7283C1.86506 11.7849 1.8591 11.8161 1.85592 11.8295C1.85285 11.8425 1.85476 11.8285 1.86946 11.7993C1.88538 11.7676 1.91274 11.7252 1.9551 11.6829C1.99754 11.6405 2.04069 11.6125 2.07409 11.5958C2.10501 11.5804 2.12084 11.5779 2.10992 11.5804C2.09847 11.5831 2.06915 11.5885 2.01438 11.5929C1.96004 11.5973 1.88982 11.6 1.79867 11.6V13.6ZM1.64546 13.5972C1.68419 13.5983 1.73958 13.6 1.79867 13.6V11.6C1.77299 11.6 1.74599 11.5993 1.70311 11.598L1.64546 13.5972ZM1.51428 13.5965C1.5335 13.5949 1.55785 13.5947 1.64547 13.5972L1.7031 11.598C1.62979 11.5959 1.49622 11.5911 1.34829 11.6034L1.51428 13.5965ZM1.07712 13.9982C1.07907 13.852 1.12749 13.7709 1.17575 13.7224C1.22815 13.6697 1.32817 13.6092 1.49866 13.5977L1.36391 11.6023C0.112405 11.6868 -0.904671 12.6197 -0.922704 13.9715L1.07712 13.9982ZM1.08764 19.5864C1.06673 17.7263 1.06671 15.8543 1.07719 13.9905L-0.922777 13.9792C-0.933294 15.8502 -0.933309 17.7341 -0.912233 19.6089L1.08764 19.5864ZM1.53496 19.9943C1.33514 19.9841 1.22884 19.9177 1.17992 19.8696C1.13699 19.8274 1.0877 19.7517 1.0877 19.5977H-0.912296C-0.912296 20.2515 -0.672918 20.8525 -0.222505 21.2955C0.221921 21.7326 0.813653 21.96 1.43258 21.9917L1.53496 19.9943ZM2.0086 19.993H1.48377V21.993H2.0086V19.993ZM3.88899 21.8016C3.86835 21.4027 3.77207 20.8832 3.36276 20.4856C2.95608 20.0905 2.43661 20.0072 2.04305 19.9936L1.97416 21.9924C2.02053 21.994 2.05331 21.9973 2.0751 22.0005C2.09689 22.0037 2.10375 22.0062 2.09959 22.0049C2.09497 22.0034 2.07763 21.9975 2.05279 21.9834C2.02719 21.9689 1.99793 21.948 1.96916 21.9201C1.94037 21.8921 1.9183 21.8631 1.90247 21.8369C1.88709 21.8115 1.88019 21.7931 1.87815 21.7871C1.87627 21.7816 1.87866 21.787 1.88208 21.8075C1.8855 21.8279 1.88931 21.8595 1.89166 21.905L3.88899 21.8016ZM3.89033 22.3254V21.8533H1.89033V22.3254H3.89033ZM5.79359 24.1895C5.17387 24.1857 4.71761 23.978 4.41625 23.6799C4.11474 23.3817 3.90165 22.927 3.89016 22.3069L1.8905 22.3439C1.9105 23.4234 2.29572 24.3955 3.00977 25.1018C3.72397 25.8083 4.70051 26.1828 5.78125 26.1895L5.79359 24.1895ZM9.87345 24.1895C8.51401 24.2 7.15456 24.2 5.79511 24.1895L5.77973 26.1895C7.14943 26.2 8.51913 26.2 9.88883 26.1895L9.87345 24.1895ZM12.6171 23.2921C11.801 23.8909 10.8953 24.1895 9.88114 24.1895V26.1895C11.3232 26.1895 12.6429 25.7537 13.8001 24.9047L12.6171 23.2921ZM13.6575 22.5122C13.3082 22.7746 12.9607 23.0358 12.6107 23.2968L13.8065 24.9C14.1598 24.6365 14.5102 24.3731 14.859 24.111L13.6575 22.5122ZM14.7101 21.7231C14.3567 21.9867 14.0063 22.2501 13.6575 22.5122L14.859 24.111C15.2083 23.8486 15.5559 23.5873 15.9058 23.3263L14.7101 21.7231ZM19.079 21.736C18.4189 21.2396 17.6963 20.9143 16.8955 20.9123C16.0949 20.9103 15.3719 21.2317 14.7118 21.7218L15.9041 23.3276C16.3461 22.9994 16.6571 22.9117 16.8904 22.9123C17.1236 22.9129 17.4349 23.002 17.8769 23.3345L19.079 21.736ZM20.0178 22.437C19.706 22.2023 19.3895 21.9641 19.0701 21.7294L17.8858 23.341C18.1943 23.5678 18.5017 23.7991 18.815 24.035L20.0178 22.437ZM21.2059 23.32C20.8088 23.0324 20.417 22.7376 20.0178 22.437L18.815 24.035C19.2119 24.3337 19.6183 24.6396 20.0327 24.9398L21.2059 23.32ZM23.1109 24.1066C22.4693 24.0771 21.8502 23.796 21.2135 23.3256L20.0251 24.9342C20.8369 25.5339 21.8343 26.0501 23.0191 26.1045L23.1109 24.1066ZM27.1939 24.1859C25.8127 24.1779 24.4566 24.1698 23.1119 24.1067L23.0181 26.1045C24.4107 26.1699 25.808 26.1779 27.1822 26.1859L27.1939 24.1859ZM27.7847 24.1895C27.5875 24.1882 27.3904 24.1871 27.1938 24.1859L27.1822 26.1859C27.3789 26.187 27.5752 26.1882 27.7714 26.1895L27.7847 24.1895ZM29.8641 22.1416C29.8599 22.9041 29.6351 23.3881 29.3389 23.6805C29.0425 23.9731 28.553 24.1937 27.7835 24.1895L27.7726 26.1895C28.9345 26.1958 29.9828 25.8551 30.7439 25.1039C31.5052 24.3524 31.8577 23.3099 31.8641 22.1525L29.8641 22.1416ZM32.0292 19.993C31.769 19.993 31.4914 20.0027 31.235 20.0543C30.9676 20.1082 30.6465 20.2223 30.3765 20.4901C30.1066 20.7577 29.9897 21.0776 29.9334 21.3439C29.8794 21.5994 29.8669 21.8765 29.8641 22.1364L31.864 22.1577C31.8652 22.0469 31.8685 21.9598 31.8738 21.8901C31.8792 21.8198 31.8857 21.7786 31.8902 21.7575C31.8992 21.7149 31.888 21.8079 31.7847 21.9103C31.6813 22.0128 31.5878 22.0234 31.6298 22.015C31.6507 22.0107 31.6917 22.0046 31.7619 22C31.8315 21.9954 31.9185 21.993 32.0292 21.993V19.993ZM32.6772 19.3669C32.6772 19.7581 32.5802 19.8615 32.5647 19.8767C32.5465 19.8947 32.4335 19.993 32.0292 19.993V21.993C32.7271 21.993 33.4381 21.8238 33.9683 21.3015C34.5013 20.7764 34.6772 20.0667 34.6772 19.3669H32.6772ZM32.6772 14.2261V19.3669H34.6772V14.2261H32.6772ZM32.0292 13.6C32.4335 13.6 32.5465 13.6983 32.5647 13.7163C32.5802 13.7315 32.6772 13.8349 32.6772 14.2261H34.6772C34.6772 13.5263 34.5013 12.8166 33.9683 12.2915C33.4381 11.7692 32.7271 11.6 32.0292 11.6V13.6ZM29.8641 11.4566C29.8669 11.7163 29.8794 11.9933 29.9337 12.2487C29.9904 12.5157 30.1082 12.8351 30.3793 13.1017C30.6491 13.3671 30.9686 13.4798 31.232 13.5336C31.4852 13.5854 31.7605 13.5972 32.0186 13.5999L32.0399 11.6001C31.9281 11.5989 31.84 11.5957 31.7691 11.5905C31.6976 11.5853 31.6553 11.5788 31.6328 11.5742C31.5868 11.5648 31.6787 11.5745 31.7819 11.676C31.8863 11.7787 31.8985 11.8732 31.89 11.833C31.8857 11.8127 31.8791 11.7722 31.8738 11.7022C31.8685 11.6329 31.8652 11.5461 31.864 11.4353L29.8641 11.4566ZM27.7781 9.40349C28.5508 9.40349 29.0392 9.62453 29.335 9.91646C29.6305 10.2082 29.8558 10.6911 29.8641 11.4569L31.864 11.435C31.8514 10.2809 31.4994 9.24262 30.74 8.49306C29.9808 7.74373 28.9367 7.40349 27.7781 7.40349V9.40349Z" fill="#E60000" mask="url(#path-1-inside-1_184_908)"/>
</g>
</g>
<defs>
<filter id="filter0_b_184_908" x="-11.9297" y="-12" width="57.6069" height="49.1974" filterUnits="userSpaceOnUse" color-interpolation-filters="sRGB">
<feFlood flood-opacity="0" result="BackgroundImageFix"/>
<feGaussianBlur in="BackgroundImageFix" stdDeviation="6"/>
<feComposite in2="SourceAlpha" operator="in" result="effect1_backgroundBlur_184_908"/>
<feBlend mode="normal" in="SourceGraphic" in2="effect1_backgroundBlur_184_908" result="shape"/>
</filter>
<clipPath id="clip0_184_908">
<rect width="33.6" height="25.2" fill="white" transform="translate(0.0666504)"/>
</clipPath>
</defs>
</svg>
